<svg width="263" height="263" viewBox="0 0 263 263" fill="none" xmlns="http://www.w3.org/2000/svg">
    <g filter="url(#filter0_f_886_458)">
        <path d="M247.511 132.342C247.389 162.776 235.396 191.962 214.083 213.688C192.611 235.49 163.364 247.881 132.764 248.141C105.821 248.149 79.7083 238.822 58.8682 221.746C38.0281 204.67 23.7485 180.901 18.4593 154.483C13.1701 128.065 17.1981 100.63 29.8578 76.8473C42.5176 53.0645 63.0269 34.4029 87.8959 24.0382C102.079 18.1437 117.3 15.1532 132.659 15.2436C148.018 15.3339 163.203 18.5033 177.316 24.5642C191.325 30.6351 203.999 39.4117 214.609 50.3908C235.824 72.385 247.627 101.784 247.511 132.342V132.342ZM246.985 132.342C246.838 117.37 243.755 102.573 237.911 88.7888C231.993 75.1144 223.43 62.7444 212.716 52.3896C191.32 31.7776 162.723 20.3317 133.013 20.4889C103.304 20.646 74.8302 32.3939 53.6533 53.2312C40.5391 66.2554 30.838 82.3117 25.4086 99.9789C19.9792 117.646 18.9891 136.379 22.5258 154.521C26.0625 172.662 34.0169 189.651 45.6851 203.985C57.3533 218.319 72.3752 229.556 89.4213 236.7C103.176 242.501 117.94 245.535 132.869 245.626C147.797 245.717 162.597 242.865 176.422 237.232C190.247 231.6 202.826 223.297 213.44 212.799C224.054 202.302 232.495 189.815 238.279 176.052C244.006 162.19 246.963 147.34 246.985 132.342V132.342Z"
              fill="#5352ED"/>
        <path d="M86.2897 151.12C87.002 152.589 87.2409 154.243 86.9735 155.854C86.6749 157.431 86.1894 158.967 85.527 160.43C84.212 163.27 82.7392 165.979 81.2927 168.741C78.3471 174.185 75.6645 179.787 73.1397 185.415C70.6149 191.043 68.3794 196.724 65.9335 202.51C65.3292 204.192 64.2848 205.682 62.909 206.823C62.0341 207.302 61.0528 207.553 60.0555 207.553C59.0581 207.553 58.0768 207.302 57.2019 206.823C54.2728 205.21 51.7882 202.897 49.9694 200.09C43.2459 189.366 38.4319 177.558 35.7411 165.19C34.9501 162.059 34.431 158.864 34.1894 155.643C33.8909 152.212 34.3028 148.756 35.3992 145.492C36.637 142.251 38.5201 139.296 40.9342 136.805C43.3484 134.314 46.2433 132.339 49.4434 131L48.7333 135.629C42.398 130.199 37.5168 123.275 34.5313 115.483C31.3599 107.597 30.6091 98.9446 32.3747 90.6298C34.2837 82.2889 38.5679 74.6797 44.7094 68.7219C47.842 65.6852 51.4942 63.2355 55.4924 61.4894C59.4879 59.7686 63.7489 58.7456 68.0901 58.4649C72.4318 58.0986 76.8042 58.454 81.0297 59.5169C83.307 60.0866 85.4936 60.9718 87.5258 62.1469C89.898 63.5267 91.8102 65.576 93.0225 68.0381C93.682 69.4291 94.0405 70.9437 94.0745 72.4828C94.1091 73.9265 93.8681 75.3636 93.3644 76.7171C92.5614 78.8474 91.4827 80.8634 90.1558 82.7135C87.8151 86.1062 85.5533 89.1307 83.3704 92.2604C79.035 98.4985 75.3262 105.15 72.2981 112.117C70.7795 115.657 69.471 119.284 68.3794 122.979C67.1959 126.661 66.5384 130.422 65.1971 134.34L64.8026 133.025C66.5384 134.603 68.2742 136.181 70.0626 137.733C71.851 139.285 73.6131 140.758 75.3226 142.23C77.0321 143.703 79.0309 145.044 80.9508 146.386L83.8438 148.358C84.918 149.012 85.7703 149.974 86.2897 151.12V151.12ZM85.5796 151.435C84.6591 149.437 82.2658 148.595 80.3196 147.254C78.3734 145.912 76.3746 144.624 74.4547 143.309C72.5348 141.994 70.5886 140.679 68.7739 139.153L63.1194 134.919L62.5145 134.472L62.7249 133.604C63.5665 130.027 63.9347 126.003 64.6974 122.137C65.4345 118.19 66.4093 114.29 67.6167 110.46C68.8191 106.631 70.2148 102.865 71.7984 99.1773C73.4393 95.5095 75.2832 91.9359 77.3214 88.4732C79.3202 85.0016 81.6609 81.7141 83.5808 78.5581C84.4696 77.1984 85.2018 75.7427 85.7637 74.2186C85.9495 73.8051 86.0456 73.3569 86.0456 72.9036C86.0456 72.4502 85.9495 72.0021 85.7637 71.5886C84.0991 69.3678 81.6388 67.8785 78.8994 67.4332C75.5223 66.6512 72.0502 66.3589 68.5898 66.5653C61.6104 66.8326 54.9461 69.5412 49.759 74.2186C44.4292 79.0097 40.6324 85.2676 38.8445 92.2078C37.1592 99.1939 37.6175 106.526 40.1595 113.248C42.5644 120.234 46.678 126.509 52.126 131.5L55.4661 134.472L51.4159 136.129C48.8522 137.12 46.515 138.618 44.5446 140.534C42.5742 142.45 41.0111 144.745 39.9491 147.28C37.9503 152.33 38.8182 158.352 40.0806 164.243C41.357 170.221 43.0263 176.107 45.0776 181.864C46.9918 187.596 49.5134 193.107 52.5994 198.302C54.0101 200.768 55.9724 202.875 58.3328 204.456C58.8018 204.756 59.3368 204.936 59.8914 204.982C60.446 205.028 61.0033 204.938 61.5151 204.719C62.5335 203.867 63.3355 202.785 63.8558 201.563C66.4858 196.093 69.1158 190.333 71.9036 184.81C74.6914 179.287 77.6633 173.79 80.6089 168.346C82.0817 165.716 83.6071 162.902 84.8432 160.088C85.6036 158.792 86.0643 157.342 86.1918 155.845C86.3192 154.348 86.11 152.841 85.5796 151.435V151.435Z"
              fill="#5352ED"/>
        <path d="M238.645 100.703C238.514 104.143 237.529 107.496 235.779 110.46C233.969 113.44 231.686 116.105 229.019 118.35C223.658 122.6 217.597 125.884 211.109 128.055C204.653 130.304 197.967 131.83 191.174 132.605L186.072 133.078L180.812 133.315C177.393 133.315 173.974 133.157 170.528 133.078L171.449 131.263C174.958 134.926 177.199 139.618 177.84 144.65C178.368 149.554 178.029 154.512 176.84 159.299C175.788 164.033 174.21 168.609 172.895 173.159C169.874 182.329 165.684 191.071 160.429 199.17C157.809 203.347 154.72 207.212 151.224 210.689C149.341 212.603 147.109 214.138 144.649 215.213C143.105 215.87 141.391 216.017 139.757 215.634C138.77 215.401 137.863 214.911 137.127 214.214C136.757 213.914 136.444 213.548 136.207 213.135C135.95 212.781 135.746 212.391 135.602 211.978C135.081 210.67 134.737 209.3 134.576 207.902C134.418 206.665 134.313 205.456 134.182 204.272C133.945 201.905 133.708 199.617 133.314 197.355C131.788 188.341 128.187 179.805 122.794 172.423C120.062 168.756 116.969 165.373 113.562 162.324C110.17 159.141 106.461 156.275 102.832 152.829C101.912 151.988 101.017 150.936 100.202 149.989C99.2927 148.873 98.516 147.655 97.8876 146.36C97.181 144.93 96.7744 143.372 96.693 141.78C96.6116 140.188 96.857 138.596 97.4142 137.102C98.4991 134.364 100.275 131.953 102.569 130.106C104.598 128.411 106.834 126.979 109.223 125.846C113.756 123.665 118.532 122.032 123.451 120.98C125.845 120.401 128.29 119.981 130.736 119.612C131.972 119.455 133.209 119.297 134.471 119.192L138.021 118.929L136.522 125.583C130.398 122.415 125.224 117.677 121.531 111.854C119.649 108.654 118.575 105.043 118.402 101.334C118.284 97.5677 119.116 93.8324 120.821 90.472L123.951 96.1791C121.301 95.955 118.711 95.2696 116.298 94.154C113.733 92.9498 111.496 91.1456 109.775 88.894C106.562 84.6619 104.85 79.4797 104.91 74.166C104.897 69.1968 105.89 64.2763 107.829 59.701C109.677 54.8924 112.806 50.6813 116.876 47.5241C119.086 45.8305 121.647 44.6533 124.372 44.0788C126.978 43.5813 129.655 43.5813 132.262 44.0788C134.666 44.559 137.018 45.2725 139.284 46.2091C141.519 47.1296 143.387 47.9975 145.517 48.9969C149.856 50.9817 153.851 53.6451 157.352 56.8869C159.238 58.6802 160.796 60.7897 161.954 63.12C162.524 64.3553 162.948 65.6528 163.217 66.9861C163.385 67.6566 163.465 68.3463 163.454 69.0375C163.531 69.807 163.531 70.5824 163.454 71.3519L159.956 68.0381C175.451 65.6121 191.29 66.6267 206.349 71.01C213.838 73.1596 220.89 76.6141 227.178 81.2144C228.721 82.3928 230.187 83.6665 231.571 85.0279C232.926 86.4322 234.141 87.9648 235.2 89.6041C237.414 92.8849 238.612 96.7451 238.645 100.703V100.703ZM237.856 100.703C237.725 96.9246 236.491 93.2675 234.306 90.1827C232.21 87.0682 229.53 84.3889 226.416 82.2927C220.116 78.0907 213.059 75.1521 205.639 73.64C190.959 70.3957 175.743 70.4496 161.087 73.7978L158.115 74.4816L157.615 70.484V69.5109C157.592 69.0987 157.512 68.6916 157.378 68.3011C157.147 67.4978 156.83 66.7218 156.431 65.9867C155.478 64.4285 154.289 63.0269 152.907 61.8313C149.79 59.266 146.306 57.1827 142.571 55.6508C138.91 53.8862 135.052 52.5619 131.078 51.7058C129.442 51.3654 127.751 51.3819 126.122 51.754C124.493 52.1262 122.963 52.8454 121.637 53.8624C118.766 56.1833 116.576 59.2365 115.298 62.6992C113.806 66.2812 113.055 70.1281 113.089 74.0082C112.984 77.5513 114.037 81.032 116.087 83.9233C117.134 85.2221 118.444 86.2848 119.931 87.0417C121.418 87.7986 123.047 88.2327 124.714 88.3154L130.526 88.9466L127.896 94.0225C126.73 96.2068 126.14 98.6522 126.181 101.128C126.223 103.604 126.894 106.028 128.133 108.172C131.061 112.905 135.19 116.779 140.099 119.402L150.356 125.451L138.574 126.056L135.023 126.24L131.631 126.556C129.395 126.845 127.133 127.187 124.898 127.66C120.484 128.503 116.185 129.863 112.09 131.71C108.351 133.066 105.236 135.741 103.332 139.232C103.015 139.96 102.868 140.749 102.9 141.541C102.931 142.334 103.142 143.109 103.516 143.808C103.896 144.664 104.382 145.468 104.962 146.202C105.699 146.964 106.304 147.78 107.145 148.569C110.328 151.725 114.115 154.776 117.665 158.142C121.271 161.506 124.539 165.214 127.423 169.214C133.153 177.363 136.9 186.738 138.363 196.593C138.732 199.012 138.942 201.458 139.152 203.825C139.216 205.949 139.525 208.058 140.073 210.111C140.388 210.821 140.546 210.926 141.02 211.11C141.717 211.262 142.445 211.188 143.097 210.9C144.999 210.058 146.729 208.872 148.2 207.402C151.509 204.239 154.447 200.71 156.957 196.882C159.557 193.014 161.902 188.982 163.98 184.81C166.099 180.644 167.952 176.349 169.529 171.949C171.081 167.478 172.659 163.034 173.789 158.51C175.019 154.089 175.49 149.492 175.183 144.913C174.778 140.38 172.935 136.095 169.923 132.684L168.319 130.658L170.949 130.816C174.289 131 177.629 131.316 180.996 131.421H186.045L191.069 131.106C197.787 130.51 204.419 129.179 210.846 127.134C217.308 125.139 223.345 121.965 228.651 117.771C231.235 115.636 233.456 113.096 235.226 110.25C236.883 107.335 237.786 104.054 237.856 100.703V100.703Z"
              fill="#5352ED"/>
        <path d="M227.76 182.233C225.695 187.495 222.82 192.402 219.239 196.777C217.188 199.025 214.499 200.593 211.533 201.274C208.393 201.89 205.137 201.388 202.328 199.854C197.22 196.598 193.179 191.917 190.704 186.388C190.027 185.066 189.43 183.705 188.915 182.312C188.394 180.916 187.946 179.494 187.574 178.051C186.692 174.996 186.406 171.799 186.732 168.636C187.149 165.141 188.701 161.879 191.151 159.352C193.608 156.913 196.68 155.186 200.04 154.355C203.023 153.602 206.09 153.23 209.166 153.25C212.086 153.25 214.768 153.25 217.845 153.592C221.155 153.858 224.354 154.904 227.182 156.643C228.695 157.664 229.969 159.001 230.916 160.562C231.771 162.086 232.308 163.768 232.494 165.506C232.673 168.568 232.17 171.631 231.022 174.474C230.068 177.115 228.979 179.704 227.76 182.233V182.233ZM227.024 181.917C228.089 179.391 228.832 176.74 229.233 174.027C229.647 171.488 229.384 168.884 228.47 166.479C226.498 162.087 222.474 161.64 217.372 161.482C214.9 161.482 212.112 161.482 209.35 161.482C206.86 161.441 204.37 161.608 201.907 161.982C199.789 162.244 197.786 163.091 196.121 164.428C194.535 165.782 193.458 167.638 193.071 169.688C192.46 174.663 193.252 179.71 195.359 184.258C197.126 189.082 200.227 193.305 204.301 196.435C206.299 197.803 208.695 198.469 211.112 198.328C213.68 198.126 216.127 197.155 218.135 195.541C222.253 191.868 225.321 187.166 227.024 181.917V181.917Z"
              fill="#5352ED"/>
    </g>
    <path d="M247.511 132.342C247.389 162.776 235.396 191.962 214.083 213.688C192.611 235.49 163.364 247.881 132.764 248.141C105.821 248.149 79.7083 238.822 58.8682 221.746C38.0281 204.67 23.7485 180.901 18.4593 154.483C13.1701 128.065 17.1981 100.63 29.8578 76.8473C42.5176 53.0645 63.0269 34.4029 87.8959 24.0382C102.079 18.1437 117.3 15.1532 132.659 15.2436C148.018 15.3339 163.203 18.5033 177.316 24.5642C191.325 30.6351 203.999 39.4117 214.609 50.3908C235.824 72.385 247.627 101.784 247.511 132.342V132.342ZM246.985 132.342C246.838 117.37 243.755 102.573 237.911 88.7888C231.993 75.1144 223.43 62.7444 212.716 52.3896C191.32 31.7776 162.723 20.3317 133.013 20.4889C103.304 20.646 74.8302 32.3939 53.6533 53.2312C40.5391 66.2554 30.838 82.3117 25.4086 99.9789C19.9792 117.646 18.9891 136.379 22.5258 154.521C26.0625 172.662 34.0169 189.651 45.6851 203.985C57.3533 218.319 72.3752 229.556 89.4213 236.7C103.176 242.501 117.94 245.535 132.869 245.626C147.797 245.717 162.597 242.865 176.422 237.232C190.247 231.6 202.826 223.297 213.44 212.799C224.054 202.302 232.495 189.815 238.279 176.052C244.006 162.19 246.963 147.34 246.985 132.342V132.342Z"
          fill="#5352ED"/>
    <path d="M86.2897 151.12C87.002 152.589 87.2409 154.243 86.9735 155.854C86.6749 157.431 86.1894 158.967 85.527 160.43C84.212 163.27 82.7392 165.979 81.2927 168.741C78.3471 174.185 75.6645 179.787 73.1397 185.415C70.6149 191.043 68.3794 196.724 65.9335 202.51C65.3292 204.192 64.2848 205.682 62.909 206.823C62.0341 207.302 61.0528 207.553 60.0555 207.553C59.0581 207.553 58.0768 207.302 57.2019 206.823C54.2728 205.21 51.7882 202.897 49.9694 200.09C43.2459 189.366 38.4319 177.558 35.7411 165.19C34.9501 162.059 34.431 158.864 34.1894 155.643C33.8909 152.212 34.3028 148.756 35.3992 145.492C36.637 142.251 38.5201 139.296 40.9342 136.805C43.3484 134.314 46.2433 132.339 49.4434 131L48.7333 135.629C42.398 130.199 37.5168 123.275 34.5313 115.483C31.3599 107.597 30.6091 98.9446 32.3747 90.6298C34.2837 82.2889 38.5679 74.6797 44.7094 68.7219C47.842 65.6852 51.4942 63.2355 55.4924 61.4894C59.4879 59.7686 63.7489 58.7456 68.0901 58.4649C72.4318 58.0986 76.8042 58.454 81.0297 59.5169C83.307 60.0866 85.4936 60.9718 87.5258 62.1469C89.898 63.5267 91.8102 65.576 93.0225 68.0381C93.682 69.4291 94.0405 70.9437 94.0745 72.4828C94.1091 73.9265 93.8681 75.3636 93.3644 76.7171C92.5614 78.8474 91.4827 80.8634 90.1558 82.7135C87.8151 86.1062 85.5533 89.1307 83.3704 92.2604C79.035 98.4985 75.3262 105.15 72.2981 112.117C70.7795 115.657 69.471 119.284 68.3794 122.979C67.1959 126.661 66.5384 130.422 65.1971 134.34L64.8026 133.025C66.5384 134.603 68.2742 136.181 70.0626 137.733C71.851 139.285 73.6131 140.758 75.3226 142.23C77.0321 143.703 79.0309 145.044 80.9508 146.386L83.8438 148.358C84.918 149.012 85.7703 149.974 86.2897 151.12V151.12ZM85.5796 151.435C84.6591 149.437 82.2658 148.595 80.3196 147.254C78.3734 145.912 76.3746 144.624 74.4547 143.309C72.5348 141.994 70.5886 140.679 68.7739 139.153L63.1194 134.919L62.5145 134.472L62.7249 133.604C63.5665 130.027 63.9347 126.003 64.6974 122.137C65.4345 118.19 66.4093 114.29 67.6167 110.46C68.8191 106.631 70.2148 102.865 71.7984 99.1773C73.4393 95.5095 75.2832 91.9359 77.3214 88.4732C79.3202 85.0016 81.6609 81.7141 83.5808 78.5581C84.4696 77.1984 85.2018 75.7427 85.7637 74.2186C85.9495 73.8051 86.0456 73.3569 86.0456 72.9036C86.0456 72.4502 85.9495 72.0021 85.7637 71.5886C84.0991 69.3678 81.6388 67.8785 78.8994 67.4332C75.5223 66.6512 72.0502 66.3589 68.5898 66.5653C61.6104 66.8326 54.9461 69.5412 49.759 74.2186C44.4292 79.0097 40.6324 85.2676 38.8445 92.2078C37.1592 99.1939 37.6175 106.526 40.1595 113.248C42.5644 120.234 46.678 126.509 52.126 131.5L55.4661 134.472L51.4159 136.129C48.8522 137.12 46.515 138.618 44.5446 140.534C42.5742 142.45 41.0111 144.745 39.9491 147.28C37.9503 152.33 38.8182 158.352 40.0806 164.243C41.357 170.221 43.0263 176.107 45.0776 181.864C46.9918 187.596 49.5134 193.107 52.5994 198.302C54.0101 200.768 55.9724 202.875 58.3328 204.456C58.8018 204.756 59.3368 204.936 59.8914 204.982C60.446 205.028 61.0033 204.938 61.5151 204.719C62.5335 203.867 63.3355 202.785 63.8558 201.563C66.4858 196.093 69.1158 190.333 71.9036 184.81C74.6914 179.287 77.6633 173.79 80.6089 168.346C82.0817 165.716 83.6071 162.902 84.8432 160.088C85.6036 158.792 86.0643 157.342 86.1918 155.845C86.3192 154.348 86.11 152.841 85.5796 151.435V151.435Z"
          fill="#5352ED"/>
    <path d="M238.645 100.703C238.514 104.143 237.529 107.496 235.779 110.46C233.969 113.44 231.686 116.105 229.019 118.35C223.658 122.6 217.597 125.884 211.109 128.055C204.653 130.304 197.967 131.83 191.174 132.605L186.072 133.078L180.812 133.315C177.393 133.315 173.974 133.157 170.528 133.078L171.449 131.263C174.958 134.926 177.199 139.618 177.84 144.65C178.368 149.554 178.029 154.512 176.84 159.299C175.788 164.033 174.21 168.609 172.895 173.159C169.874 182.329 165.684 191.071 160.429 199.17C157.809 203.347 154.72 207.212 151.224 210.689C149.341 212.603 147.109 214.138 144.649 215.213C143.105 215.87 141.391 216.017 139.757 215.634C138.77 215.401 137.863 214.911 137.127 214.214C136.757 213.914 136.444 213.548 136.207 213.135C135.95 212.781 135.746 212.391 135.602 211.978C135.081 210.67 134.737 209.3 134.576 207.902C134.418 206.665 134.313 205.456 134.182 204.272C133.945 201.905 133.708 199.617 133.314 197.355C131.788 188.341 128.187 179.805 122.794 172.423C120.062 168.756 116.969 165.373 113.562 162.324C110.17 159.141 106.461 156.275 102.832 152.829C101.912 151.988 101.017 150.936 100.202 149.989C99.2927 148.873 98.516 147.655 97.8876 146.36C97.181 144.93 96.7744 143.372 96.693 141.78C96.6116 140.188 96.857 138.596 97.4142 137.102C98.4991 134.364 100.275 131.953 102.569 130.106C104.598 128.411 106.834 126.979 109.223 125.846C113.756 123.665 118.532 122.032 123.451 120.98C125.845 120.401 128.29 119.981 130.736 119.612C131.972 119.455 133.209 119.297 134.471 119.192L138.021 118.929L136.522 125.583C130.398 122.415 125.224 117.677 121.531 111.854C119.649 108.654 118.575 105.043 118.402 101.334C118.284 97.5677 119.116 93.8324 120.821 90.472L123.951 96.1791C121.301 95.955 118.711 95.2696 116.298 94.154C113.733 92.9498 111.496 91.1456 109.775 88.894C106.562 84.6619 104.85 79.4797 104.91 74.166C104.897 69.1968 105.89 64.2763 107.829 59.701C109.677 54.8924 112.806 50.6813 116.876 47.5241C119.086 45.8305 121.647 44.6533 124.372 44.0788C126.978 43.5813 129.655 43.5813 132.262 44.0788C134.666 44.559 137.018 45.2725 139.284 46.2091C141.519 47.1296 143.387 47.9975 145.517 48.9969C149.856 50.9817 153.851 53.6451 157.352 56.8869C159.238 58.6802 160.796 60.7897 161.954 63.12C162.524 64.3553 162.948 65.6528 163.217 66.9861C163.385 67.6566 163.465 68.3463 163.454 69.0375C163.531 69.807 163.531 70.5824 163.454 71.3519L159.956 68.0381C175.451 65.6121 191.29 66.6267 206.349 71.01C213.838 73.1596 220.89 76.6141 227.178 81.2144C228.721 82.3928 230.187 83.6665 231.571 85.0279C232.926 86.4322 234.141 87.9648 235.2 89.6041C237.414 92.8849 238.612 96.7451 238.645 100.703V100.703ZM237.856 100.703C237.725 96.9246 236.491 93.2675 234.306 90.1827C232.21 87.0682 229.53 84.3889 226.416 82.2927C220.116 78.0907 213.059 75.1521 205.639 73.64C190.959 70.3957 175.743 70.4496 161.087 73.7978L158.115 74.4816L157.615 70.484V69.5109C157.592 69.0987 157.512 68.6916 157.378 68.3011C157.147 67.4978 156.83 66.7218 156.431 65.9867C155.478 64.4285 154.289 63.0269 152.907 61.8313C149.79 59.266 146.306 57.1827 142.571 55.6508C138.91 53.8862 135.052 52.5619 131.078 51.7058C129.442 51.3654 127.751 51.3819 126.122 51.754C124.493 52.1262 122.963 52.8454 121.637 53.8624C118.766 56.1833 116.576 59.2365 115.298 62.6992C113.806 66.2812 113.055 70.1281 113.089 74.0082C112.984 77.5513 114.037 81.032 116.087 83.9233C117.134 85.2221 118.444 86.2848 119.931 87.0417C121.418 87.7986 123.047 88.2327 124.714 88.3154L130.526 88.9466L127.896 94.0225C126.73 96.2068 126.14 98.6522 126.181 101.128C126.223 103.604 126.894 106.028 128.133 108.172C131.061 112.905 135.19 116.779 140.099 119.402L150.356 125.451L138.574 126.056L135.023 126.24L131.631 126.556C129.395 126.845 127.133 127.187 124.898 127.66C120.484 128.503 116.185 129.863 112.09 131.71C108.351 133.066 105.236 135.741 103.332 139.232C103.015 139.96 102.868 140.749 102.9 141.541C102.931 142.334 103.142 143.109 103.516 143.808C103.896 144.664 104.382 145.468 104.962 146.202C105.699 146.964 106.304 147.78 107.145 148.569C110.328 151.725 114.115 154.776 117.665 158.142C121.271 161.506 124.539 165.214 127.423 169.214C133.153 177.363 136.9 186.738 138.363 196.593C138.732 199.012 138.942 201.458 139.152 203.825C139.216 205.949 139.525 208.058 140.073 210.111C140.388 210.821 140.546 210.926 141.02 211.11C141.717 211.262 142.445 211.188 143.097 210.9C144.999 210.058 146.729 208.872 148.2 207.402C151.509 204.239 154.447 200.71 156.957 196.882C159.557 193.014 161.902 188.982 163.98 184.81C166.099 180.644 167.952 176.349 169.529 171.949C171.081 167.478 172.659 163.034 173.789 158.51C175.019 154.089 175.49 149.492 175.183 144.913C174.778 140.38 172.935 136.095 169.923 132.684L168.319 130.658L170.949 130.816C174.289 131 177.629 131.316 180.996 131.421H186.045L191.069 131.106C197.787 130.51 204.419 129.179 210.846 127.134C217.308 125.139 223.345 121.965 228.651 117.771C231.235 115.636 233.456 113.096 235.226 110.25C236.883 107.335 237.786 104.054 237.856 100.703V100.703Z"
          fill="#5352ED"/>
    <path d="M227.76 182.233C225.695 187.495 222.82 192.402 219.239 196.777C217.188 199.025 214.499 200.593 211.533 201.274C208.393 201.89 205.137 201.388 202.328 199.854C197.22 196.598 193.179 191.917 190.704 186.388C190.027 185.066 189.43 183.705 188.915 182.312C188.394 180.916 187.946 179.494 187.574 178.051C186.692 174.996 186.406 171.799 186.732 168.636C187.149 165.141 188.701 161.879 191.151 159.352C193.608 156.913 196.68 155.186 200.04 154.355C203.023 153.602 206.09 153.23 209.166 153.25C212.086 153.25 214.768 153.25 217.845 153.592C221.155 153.858 224.354 154.904 227.182 156.643C228.695 157.664 229.969 159.001 230.916 160.562C231.771 162.086 232.308 163.768 232.494 165.506C232.673 168.568 232.17 171.631 231.022 174.474C230.068 177.115 228.979 179.704 227.76 182.233V182.233ZM227.024 181.917C228.089 179.391 228.832 176.74 229.233 174.027C229.647 171.488 229.384 168.884 228.47 166.479C226.498 162.087 222.474 161.64 217.372 161.482C214.9 161.482 212.112 161.482 209.35 161.482C206.86 161.441 204.37 161.608 201.907 161.982C199.789 162.244 197.786 163.091 196.121 164.428C194.535 165.782 193.458 167.638 193.071 169.688C192.46 174.663 193.252 179.71 195.359 184.258C197.126 189.082 200.227 193.305 204.301 196.435C206.299 197.803 208.695 198.469 211.112 198.328C213.68 198.126 216.127 197.155 218.135 195.541C222.253 191.868 225.321 187.166 227.024 181.917V181.917Z"
          fill="#5352ED"/>
    <path d="M247.664 131.018C247.544 161.148 235.671 190.042 214.571 211.551C193.313 233.135 164.359 245.402 134.065 245.659C107.392 245.668 81.5399 236.434 60.9082 219.529C40.2765 202.624 26.1397 179.092 20.9034 152.938C15.6671 126.784 19.6548 99.6238 32.188 76.0788C44.7211 52.5338 65.0254 34.0589 89.6457 23.7978C103.687 17.9622 118.756 15.0016 133.961 15.0911C149.167 15.1805 164.2 18.3182 178.171 24.3185C192.041 30.3287 204.588 39.0175 215.092 49.8869C236.094 71.6611 247.779 100.766 247.664 131.018V131.018ZM247.143 131.018C246.998 116.197 243.946 101.547 238.161 87.9009C232.301 74.3632 223.824 62.1169 213.217 51.8657C192.035 31.4598 163.724 20.1283 134.312 20.2839C104.9 20.4395 76.7106 32.0699 55.7455 52.6989C42.7624 65.5928 33.1583 81.4885 27.7832 98.9791C22.4082 116.47 21.4279 135.016 24.9292 152.975C28.4305 170.935 36.3055 187.755 47.8569 201.945C59.4084 216.136 74.2802 227.26 91.1558 234.333C104.773 240.076 119.39 243.079 134.169 243.17C148.948 243.26 163.599 240.436 177.286 234.86C190.973 229.284 203.427 221.064 213.934 210.671C224.442 200.278 232.799 187.916 238.525 174.292C244.195 160.568 247.123 145.867 247.143 131.018V131.018Z"
          fill="#8B8AFF"/>
    <path d="M88.0596 149.609C88.7648 151.063 89.0013 152.701 88.7366 154.295C88.441 155.857 87.9602 157.378 87.3045 158.826C86.0027 161.638 84.5446 164.319 83.1126 167.053C80.1964 172.443 77.5407 177.989 75.0411 183.561C72.5416 189.133 70.3284 194.757 67.907 200.485C67.3087 202.15 66.2747 203.625 64.9127 204.755C64.0466 205.229 63.0751 205.477 62.0877 205.477C61.1003 205.477 60.1288 205.229 59.2627 204.755C56.3628 203.158 53.9031 200.868 52.1025 198.089C45.4462 187.473 40.6804 175.783 38.0165 163.538C37.2334 160.438 36.7194 157.276 36.4803 154.087C36.1848 150.69 36.5925 147.269 37.678 144.037C38.9034 140.829 40.7676 137.903 43.1576 135.437C45.5476 132.971 48.4136 131.016 51.5818 129.69L50.8788 134.273C44.6068 128.897 39.7744 122.042 36.8188 114.328C33.679 106.521 32.9358 97.9551 34.6838 89.7235C36.5737 81.466 40.815 73.9329 46.8951 68.0346C49.9963 65.0283 53.6121 62.6031 57.5703 60.8745C61.5258 59.1709 65.7442 58.1581 70.042 57.8802C74.3403 57.5176 78.6689 57.8695 82.8522 58.9217C85.1067 59.4857 87.2714 60.3621 89.2833 61.5254C91.6318 62.8914 93.5248 64.9203 94.7251 67.3577C95.3779 68.7348 95.7328 70.2342 95.7666 71.7579C95.8008 73.1872 95.5622 74.6099 95.0636 75.9499C94.2685 78.0589 93.2006 80.0547 91.887 81.8863C89.5697 85.2451 87.3306 88.2394 85.1695 91.3378C80.8774 97.5136 77.2057 104.098 74.2079 110.996C72.7045 114.501 71.4091 118.091 70.3284 121.749C69.1567 125.394 68.5058 129.117 67.1779 132.997L66.7874 131.695C68.5058 133.257 70.2243 134.82 71.9948 136.356C73.7653 137.892 75.5098 139.35 77.2022 140.808C78.8946 142.266 80.8734 143.594 82.7741 144.922L85.6382 146.875C86.7016 147.522 87.5454 148.475 88.0596 149.609V149.609ZM87.3566 149.921C86.4453 147.942 84.0759 147.109 82.1492 145.781C80.2225 144.453 78.2437 143.177 76.343 141.876C74.4423 140.574 72.5155 139.272 70.719 137.762L65.121 133.57L64.5222 133.127L64.7305 132.268C65.5636 128.727 65.9282 124.743 66.6832 120.916C67.4129 117.008 68.378 113.147 69.5733 109.355C70.7637 105.565 72.1455 101.836 73.7132 98.1855C75.3377 94.5544 77.1631 91.0166 79.181 87.5884C81.1598 84.1515 83.4771 80.8969 85.3778 77.7725C86.2576 76.4264 86.9826 74.9852 87.5389 73.4764C87.7228 73.067 87.8179 72.6233 87.8179 72.1745C87.8179 71.7257 87.7228 71.282 87.5389 70.8727C85.8909 68.6742 83.4552 67.1997 80.7432 66.7588C77.3998 65.9847 73.9625 65.6953 70.5367 65.8996C63.627 66.1643 57.0295 68.8457 51.8942 73.4764C46.6177 78.2196 42.8588 84.415 41.0889 91.2857C39.4204 98.202 39.8741 105.461 42.3907 112.115C44.7715 119.032 48.8439 125.244 54.2375 130.185L57.5442 133.127L53.5345 134.767C50.9965 135.748 48.6826 137.232 46.7319 139.129C44.7812 141.026 43.2337 143.297 42.1824 145.807C40.2036 150.806 41.0628 156.769 42.3126 162.601C43.5762 168.518 45.2288 174.346 47.2596 180.046C49.1547 185.72 51.6511 191.175 54.7062 196.319C56.1027 198.761 58.0455 200.846 60.3823 202.412C60.8466 202.708 61.3762 202.887 61.9253 202.932C62.4743 202.978 63.0261 202.888 63.5328 202.672C64.5409 201.828 65.335 200.757 65.85 199.548C68.4537 194.132 71.0574 188.43 73.8174 182.962C76.5773 177.494 79.5195 172.052 82.4356 166.663C83.8937 164.059 85.4038 161.273 86.6276 158.487C87.3803 157.204 87.8365 155.769 87.9626 154.287C88.0888 152.804 87.8817 151.313 87.3566 149.921V149.921Z"
          fill="#8B8AFF"/>
    <path d="M238.892 99.6956C238.761 103.101 237.786 106.421 236.054 109.355C234.262 112.305 232.002 114.944 229.362 117.166C224.054 121.374 218.054 124.625 211.631 126.774C205.239 129.001 198.62 130.511 191.895 131.279L186.844 131.747L181.636 131.982C178.251 131.982 174.867 131.825 171.456 131.747L172.367 129.951C175.842 133.576 178.06 138.222 178.694 143.203C179.217 148.058 178.882 152.967 177.705 157.706C176.663 162.393 175.101 166.923 173.799 171.428C170.808 180.505 166.66 189.16 161.458 197.178C158.863 201.314 155.806 205.14 152.345 208.582C150.48 210.477 148.271 211.997 145.835 213.061C144.306 213.711 142.61 213.857 140.992 213.477C140.016 213.247 139.117 212.762 138.389 212.071C138.022 211.775 137.713 211.413 137.477 211.004C137.223 210.653 137.021 210.267 136.879 209.858C136.363 208.564 136.022 207.207 135.863 205.822C135.707 204.599 135.603 203.401 135.473 202.229C135.238 199.886 135.004 197.621 134.613 195.382C133.103 186.458 129.538 178.007 124.199 170.699C121.494 167.069 118.433 163.719 115.06 160.7C111.701 157.55 108.03 154.712 104.437 151.301C103.525 150.468 102.64 149.426 101.833 148.489C100.933 147.384 100.164 146.178 99.5416 144.896C98.8419 143.481 98.4394 141.938 98.3588 140.362C98.2782 138.786 98.5212 137.21 99.0729 135.731C100.147 133.02 101.905 130.634 104.176 128.805C106.185 127.126 108.398 125.709 110.763 124.587C115.251 122.428 119.98 120.811 124.85 119.77C127.219 119.197 129.64 118.781 132.062 118.416C133.285 118.26 134.509 118.104 135.759 118L139.274 117.739L137.79 124.327C131.726 121.191 126.605 116.5 122.949 110.735C121.085 107.567 120.022 103.992 119.85 100.321C119.734 96.5919 120.558 92.894 122.246 89.5672L125.344 95.2173C122.721 94.9954 120.157 94.3169 117.767 93.2124C115.228 92.0202 113.013 90.234 111.31 88.005C108.129 83.8152 106.434 78.6848 106.493 73.4243C106.481 68.5047 107.464 63.6335 109.384 59.104C111.213 54.3434 114.31 50.1744 118.34 47.0488C120.528 45.3721 123.064 44.2067 125.761 43.638C128.341 43.1454 130.992 43.1454 133.572 43.638C135.952 44.1133 138.281 44.8197 140.524 45.747C142.737 46.6583 144.586 47.5175 146.695 48.5069C150.99 50.4718 154.945 53.1086 158.411 56.318C160.278 58.0933 161.821 60.1817 162.968 62.4888C163.531 63.7117 163.951 64.9962 164.217 66.3162C164.384 66.98 164.463 67.6628 164.452 68.3471C164.529 69.1089 164.529 69.8765 164.452 70.6383L160.989 67.3577C176.329 64.9559 192.01 65.9604 206.918 70.2999C214.333 72.4279 221.314 75.8478 227.539 80.4022C229.066 81.5688 230.518 82.8297 231.888 84.1776C233.229 85.5678 234.433 87.0851 235.481 88.708C237.672 91.956 238.859 95.7776 238.892 99.6956V99.6956ZM238.11 99.6956C237.981 95.9553 236.759 92.3347 234.595 89.2808C232.52 86.1975 229.868 83.545 226.784 81.4697C220.547 77.3097 213.561 74.4005 206.215 72.9036C191.682 69.6917 176.618 69.745 162.108 73.0598L159.166 73.7367L158.672 69.7791V68.8158C158.649 68.4077 158.57 68.0046 158.437 67.618C158.208 66.8227 157.894 66.0545 157.5 65.3268C156.556 63.7841 155.379 62.3965 154.011 61.213C150.925 58.6733 147.476 56.6107 143.778 55.0943C140.153 53.3472 136.334 52.0362 132.4 51.1887C130.78 50.8517 129.107 50.868 127.494 51.2364C125.881 51.6049 124.366 52.3168 123.053 53.3237C120.211 55.6214 118.043 58.644 116.778 62.0722C115.301 65.6183 114.557 69.4267 114.591 73.2681C114.487 76.7757 115.529 80.2216 117.559 83.084C118.596 84.3698 119.893 85.4218 121.364 86.1712C122.836 86.9206 124.45 87.3503 126.099 87.4322L131.853 88.0571L129.25 93.0822C128.095 95.2447 127.511 97.6656 127.552 100.117C127.593 102.567 128.258 104.968 129.484 107.09C132.384 111.776 136.471 115.612 141.331 118.208L151.485 124.196L139.821 124.795L136.306 124.978L132.947 125.29C130.734 125.576 128.495 125.915 126.282 126.384C121.912 127.218 117.656 128.564 113.602 130.393C109.9 131.735 106.817 134.383 104.931 137.84C104.618 138.56 104.472 139.341 104.503 140.126C104.535 140.91 104.744 141.678 105.113 142.37C105.49 143.217 105.971 144.013 106.546 144.74C107.275 145.495 107.873 146.302 108.707 147.083C111.857 150.207 115.606 153.228 119.121 156.56C122.691 159.89 125.926 163.562 128.781 167.522C134.455 175.589 138.164 184.871 139.612 194.627C139.977 197.022 140.185 199.443 140.394 201.787C140.456 203.889 140.762 205.977 141.305 208.01C141.617 208.713 141.774 208.817 142.242 208.999C142.933 209.149 143.653 209.076 144.299 208.791C146.182 207.957 147.894 206.783 149.35 205.328C152.627 202.197 155.536 198.703 158.021 194.913C160.594 191.084 162.916 187.092 164.973 182.962C167.07 178.838 168.905 174.585 170.466 170.23C172.003 165.804 173.565 161.403 174.684 156.925C175.901 152.548 176.368 147.997 176.064 143.464C175.663 138.976 173.838 134.734 170.857 131.357L169.269 129.352L171.872 129.508C175.179 129.69 178.486 130.003 181.818 130.107H186.818L191.791 129.794C198.442 129.205 205.008 127.887 211.37 125.863C217.768 123.888 223.744 120.745 228.998 116.594C231.556 114.48 233.754 111.965 235.507 109.147C237.146 106.262 238.041 103.014 238.11 99.6956V99.6956Z"
          fill="#8B8AFF"/>
    <path d="M228.111 180.41C226.066 185.62 223.219 190.478 219.675 194.809C217.643 197.034 214.982 198.587 212.046 199.261C208.937 199.871 205.713 199.373 202.933 197.855C197.876 194.632 193.875 189.997 191.424 184.524C190.755 183.215 190.164 181.868 189.654 180.488C189.137 179.107 188.694 177.699 188.326 176.27C187.453 173.246 187.17 170.081 187.493 166.949C187.905 163.489 189.442 160.26 191.867 157.758C194.299 155.344 197.341 153.634 200.668 152.811C203.621 152.065 206.657 151.698 209.702 151.718C212.592 151.718 215.248 151.718 218.295 152.056C221.571 152.319 224.738 153.354 227.538 155.076C229.036 156.088 230.297 157.411 231.235 158.956C232.081 160.465 232.612 162.13 232.797 163.851C232.974 166.882 232.476 169.914 231.339 172.729C230.395 175.343 229.317 177.907 228.111 180.41V180.41ZM227.381 180.098C228.436 177.597 229.171 174.972 229.569 172.287C229.979 169.773 229.718 167.195 228.814 164.814C226.861 160.466 222.877 160.023 217.826 159.867C215.378 159.867 212.618 159.867 209.885 159.867C207.419 159.826 204.954 159.992 202.516 160.362C200.419 160.621 198.435 161.46 196.788 162.783C195.217 164.124 194.152 165.961 193.768 167.991C193.163 172.916 193.948 177.912 196.033 182.415C197.782 187.191 200.852 191.372 204.886 194.47C206.864 195.824 209.236 196.484 211.629 196.345C214.171 196.145 216.594 195.183 218.581 193.585C222.659 189.949 225.696 185.294 227.381 180.098V180.098Z"
          fill="#8B8AFF"/>
    <defs>
        <filter id="filter0_f_886_458" x="-6" y="-6" width="275" height="275" filterUnits="userSpaceOnUse"
                color-interpolation-filters="sRGB">
            <feFlood flood-opacity="0" result="BackgroundImageFix"/>
            <feBlend mode="normal" in="SourceGraphic" in2="BackgroundImageFix" result="shape"/>
            <feGaussianBlur stdDeviation="3" result="effect1_foregroundBlur_886_458"/>
        </filter>
    </defs>
</svg>
