<svg width="217" height="217" viewBox="0 0 217 217" fill="none" xmlns="http://www.w3.org/2000/svg">
    <g filter="url(#filter0_f_886_442)">
        <path d="M100.711 206.996C105.329 190.435 108.095 173.412 108.957 156.24C109.423 147.688 109.38 139.116 108.827 130.569C108.827 128.399 108.588 126.229 108.349 124.189C108.11 122.149 107.959 119.849 107.72 117.809C107.112 113.469 106.635 109.325 105.81 105.136C102.849 88.331 97.9935 71.9152 91.3363 56.203C84.6846 40.4981 76.2766 25.5966 66.2728 11.7831L69.6146 12.369C59.4838 19.8206 51.4487 29.7618 46.2871 41.23C41.3136 52.6285 40.4619 65.4026 43.8784 77.3605C47.3718 89.2911 54.2545 99.9507 63.6905 108.044C73.1531 116.217 84.5049 121.901 96.7179 124.58L93.311 128.486L86.4321 105.202C84.2621 97.4547 82.0921 89.6644 79.9221 81.8741C77.7521 74.0838 75.5821 66.3369 73.4121 58.5249C71.2421 50.7129 69.0721 42.9009 67.1842 35.0672C67.1601 35.0076 67.1555 34.9418 67.1711 34.8794C67.1867 34.817 67.2216 34.7612 67.271 34.72C67.3458 34.6992 67.4257 34.7079 67.4943 34.7442C67.5629 34.7805 67.615 34.8417 67.6399 34.9153C70.4392 42.5103 73.0649 50.1053 75.7557 57.7871C78.4465 65.4689 80.9854 72.9771 83.6111 80.724C86.2368 88.4709 88.8408 95.914 91.358 103.704L98.9096 126.728L100.515 131.632L95.481 130.547C88.8478 129.221 82.3944 127.116 76.2548 124.276C70.1321 121.321 64.4263 117.571 59.2854 113.122C48.7925 104.233 41.2602 92.3559 37.6939 79.0748C34.184 65.731 35.4348 51.5811 41.231 39.06C44.0511 32.932 47.7021 27.2218 52.081 22.0906C56.4071 16.933 61.3647 12.34 66.837 8.41956L68.8117 7.03076L70.1788 9.00546C90.1631 37.5481 103.36 70.2804 108.761 104.702C109.499 109.042 109.89 113.382 110.389 117.571C110.606 119.741 110.714 121.911 110.888 124.081C111.062 126.251 111.192 128.421 111.235 130.591C111.594 139.221 111.441 147.866 110.78 156.479C109.51 173.672 106.344 190.672 101.34 207.17C101.328 207.211 101.307 207.25 101.28 207.284C101.252 207.317 101.218 207.345 101.18 207.365C101.141 207.385 101.099 207.398 101.056 207.402C101.013 207.405 100.969 207.4 100.928 207.387C100.887 207.377 100.849 207.359 100.815 207.333C100.782 207.308 100.754 207.276 100.734 207.239C100.713 207.202 100.701 207.162 100.697 207.12C100.693 207.078 100.698 207.036 100.711 206.996Z"
              fill="#5352ED"/>
        <path d="M130.59 207.17C126.428 193.602 123.786 179.614 122.713 165.462C122.153 158.381 122.015 151.272 122.301 144.175C122.524 137.06 123.184 129.965 124.276 122.93C128.649 94.577 139.457 67.6015 155.871 44.0726L157.238 42.0979L159.213 43.4867C163.742 46.7214 167.846 50.5124 171.43 54.7707C175.086 59.0057 178.132 63.7315 180.479 68.8106C185.291 79.19 186.342 90.9203 183.452 101.99C180.508 112.997 174.269 122.84 165.571 130.2C161.301 133.884 156.566 136.992 151.487 139.444C146.392 141.784 141.038 143.518 135.538 144.609L130.417 145.629L132.044 140.746L138.316 121.845C140.486 115.531 142.656 109.259 144.826 102.988C146.996 96.7168 149.166 90.4238 151.336 84.1742C153.506 77.9246 155.806 71.6533 158.171 65.4471C158.201 65.367 158.26 65.3017 158.337 65.2651C158.414 65.2286 158.503 65.2238 158.583 65.2518C158.66 65.2809 158.723 65.3361 158.763 65.4076C158.803 65.479 158.816 65.5622 158.8 65.6424C157.238 72.1524 155.502 78.5105 153.853 84.9554C152.204 91.4003 150.359 97.7801 148.645 104.182C146.931 110.583 145.173 117.18 143.328 123.516L137.817 142.656L134.323 138.88C144.256 136.688 153.483 132.049 161.166 125.382C168.845 118.784 174.445 110.101 177.289 100.384C180.114 90.6852 179.446 80.3025 175.401 71.0457C171.231 61.6717 164.705 53.5377 156.457 47.4361L159.799 46.8502C143.295 69.5774 132.165 95.7542 127.249 123.408C125.99 130.31 125.142 137.281 124.71 144.283C124.247 151.298 124.196 158.333 124.558 165.354C125.246 179.437 127.48 193.401 131.22 206.996C131.244 207.039 131.259 207.087 131.262 207.136C131.265 207.186 131.258 207.235 131.239 207.281C131.22 207.326 131.192 207.367 131.155 207.4C131.118 207.433 131.074 207.458 131.027 207.471C130.979 207.485 130.929 207.487 130.881 207.479C130.832 207.47 130.786 207.451 130.746 207.422C130.706 207.392 130.673 207.355 130.65 207.311C130.627 207.267 130.614 207.219 130.612 207.17H130.59Z"
              fill="#5352ED"/>
        <path d="M87.9069 101.99C84.6302 100.536 81.3969 98.9302 78.207 97.4112C75.0171 95.8922 71.8055 94.2213 68.659 92.5504C65.3659 91.1855 62.2301 89.4685 59.3063 87.4292C57.8784 86.3168 56.5431 85.0903 55.3135 83.7619C53.9856 82.4046 52.8204 80.8971 51.8415 79.27C51.7937 79.1863 51.7806 79.0872 51.8049 78.9939C51.8292 78.9006 51.8891 78.8206 51.9717 78.7709C52.0428 78.7515 52.1177 78.7515 52.1887 78.7709C54.0802 78.9538 55.9442 79.3543 57.7439 79.9644C59.4713 80.507 61.1544 81.1817 62.7783 81.9825C65.8847 83.7442 68.7945 85.8319 71.4583 88.2104C74.3517 90.337 77.1799 92.507 79.943 94.7204C82.7206 96.8904 85.5417 99.0604 88.2759 101.491C88.3324 101.557 88.3635 101.642 88.3635 101.729C88.3635 101.817 88.3324 101.902 88.2759 101.968C88.2217 102.004 88.1591 102.025 88.0943 102.029C88.0295 102.032 87.9649 102.019 87.9069 101.99V101.99Z"
              fill="#5352ED"/>
        <path d="M78.1199 70.5684C76.0801 69.9825 74.1705 69.2447 72.1741 68.572C70.1777 67.8993 68.3115 67.1181 66.4236 66.402C64.418 65.8938 62.5212 65.0262 60.825 63.8414C60.008 63.1363 59.2793 62.3348 58.655 61.4544C57.9295 60.471 57.3789 59.3699 57.0275 58.1994C56.9979 58.0872 57.0102 57.9679 57.0621 57.8641C57.114 57.7602 57.202 57.6789 57.3096 57.6352C58.5092 57.3897 59.7412 57.3457 60.9552 57.505C62.0248 57.6119 63.0756 57.86 64.08 58.2428C65.9347 59.15 67.605 60.3935 69.0059 61.9101C70.6334 63.1904 72.2175 64.4924 73.7799 65.8595C75.3423 67.2266 76.883 68.6154 78.3803 70.1995C78.4414 70.264 78.4754 70.3494 78.4754 70.4382C78.4754 70.527 78.4414 70.6124 78.3803 70.6769C78.3314 70.6812 78.2821 70.6736 78.2368 70.6547C78.1914 70.6358 78.1513 70.6062 78.1199 70.5684Z"
              fill="#5352ED"/>
        <path d="M149.861 92.8761C150.859 91.8562 152.031 91.0099 152.986 90.0551C153.94 89.1003 155.156 88.3408 156.262 87.5596C157.369 86.7784 158.237 85.3896 159.669 85.3896C160.388 85.2682 161.121 85.2682 161.839 85.3896C162.77 85.5391 163.663 85.8709 164.465 86.3661C164.569 86.4246 164.651 86.5158 164.698 86.6257C164.746 86.7356 164.755 86.8579 164.725 86.9737C164.544 87.8958 164.198 88.7777 163.705 89.5777C163.314 90.2159 162.823 90.7874 162.252 91.2703C161.232 92.2468 159.648 92.0081 158.324 92.2902C157 92.5723 155.633 92.8327 154.266 93.028C152.899 93.2233 151.51 93.3752 150.078 93.4403C150.032 93.4466 149.985 93.4428 149.94 93.4292C149.895 93.4157 149.854 93.3927 149.819 93.3618C149.784 93.3309 149.756 93.2929 149.737 93.2503C149.718 93.2077 149.709 93.1615 149.709 93.1148C149.717 93.067 149.735 93.0213 149.761 92.9803C149.787 92.9394 149.821 92.904 149.861 92.8761V92.8761Z"
              fill="#5352ED"/>
    </g>
    <path d="M100.711 206.996C105.329 190.435 108.095 173.412 108.957 156.24C109.423 147.688 109.38 139.116 108.827 130.569C108.827 128.399 108.588 126.229 108.349 124.189C108.11 122.149 107.959 119.849 107.72 117.809C107.112 113.469 106.635 109.325 105.81 105.136C102.849 88.331 97.9935 71.9152 91.3363 56.203C84.6846 40.4981 76.2766 25.5966 66.2728 11.7831L69.6146 12.369C59.4838 19.8206 51.4487 29.7618 46.2871 41.23C41.3136 52.6285 40.4619 65.4026 43.8784 77.3605C47.3718 89.2911 54.2545 99.9507 63.6905 108.044C73.1531 116.217 84.5049 121.901 96.7179 124.58L93.311 128.486L86.4321 105.202C84.2621 97.4547 82.0921 89.6644 79.9221 81.8741C77.7521 74.0838 75.5821 66.3369 73.4121 58.5249C71.2421 50.7129 69.0721 42.9009 67.1842 35.0672C67.1601 35.0076 67.1555 34.9418 67.1711 34.8794C67.1867 34.817 67.2216 34.7612 67.271 34.72C67.3458 34.6992 67.4257 34.7079 67.4943 34.7442C67.5629 34.7805 67.615 34.8417 67.6399 34.9153C70.4392 42.5103 73.0649 50.1053 75.7557 57.7871C78.4465 65.4689 80.9854 72.9771 83.6111 80.724C86.2368 88.4709 88.8408 95.914 91.358 103.704L98.9096 126.728L100.515 131.632L95.481 130.547C88.8478 129.221 82.3944 127.116 76.2548 124.276C70.1321 121.321 64.4263 117.571 59.2854 113.122C48.7925 104.233 41.2602 92.3559 37.6939 79.0748C34.184 65.731 35.4348 51.5811 41.231 39.06C44.0511 32.932 47.7021 27.2218 52.081 22.0906C56.4071 16.933 61.3647 12.34 66.837 8.41956L68.8117 7.03076L70.1788 9.00546C90.1631 37.5481 103.36 70.2804 108.761 104.702C109.499 109.042 109.89 113.382 110.389 117.571C110.606 119.741 110.714 121.911 110.888 124.081C111.062 126.251 111.192 128.421 111.235 130.591C111.594 139.221 111.441 147.866 110.78 156.479C109.51 173.672 106.344 190.672 101.34 207.17C101.328 207.211 101.307 207.25 101.28 207.284C101.252 207.317 101.218 207.345 101.18 207.365C101.141 207.385 101.099 207.398 101.056 207.402C101.013 207.405 100.969 207.4 100.928 207.387C100.887 207.377 100.849 207.359 100.815 207.333C100.782 207.308 100.754 207.276 100.734 207.239C100.713 207.202 100.701 207.162 100.697 207.12C100.693 207.078 100.698 207.036 100.711 206.996Z"
          fill="#5352ED"/>
    <path d="M130.59 207.17C126.428 193.602 123.786 179.614 122.713 165.462C122.153 158.381 122.015 151.272 122.301 144.175C122.524 137.06 123.184 129.965 124.276 122.93C128.649 94.577 139.457 67.6015 155.871 44.0726L157.238 42.0979L159.213 43.4867C163.742 46.7214 167.846 50.5124 171.43 54.7707C175.086 59.0057 178.132 63.7315 180.479 68.8106C185.291 79.19 186.342 90.9203 183.452 101.99C180.508 112.997 174.269 122.84 165.571 130.2C161.301 133.884 156.566 136.992 151.487 139.444C146.392 141.784 141.038 143.518 135.538 144.609L130.417 145.629L132.044 140.746L138.316 121.845C140.486 115.531 142.656 109.259 144.826 102.988C146.996 96.7168 149.166 90.4238 151.336 84.1742C153.506 77.9246 155.806 71.6533 158.171 65.4471C158.201 65.367 158.26 65.3017 158.337 65.2651C158.414 65.2286 158.503 65.2238 158.583 65.2518C158.66 65.2809 158.723 65.3361 158.763 65.4076C158.803 65.479 158.816 65.5622 158.8 65.6424C157.238 72.1524 155.502 78.5105 153.853 84.9554C152.204 91.4003 150.359 97.7801 148.645 104.182C146.931 110.583 145.173 117.18 143.328 123.516L137.817 142.656L134.323 138.88C144.256 136.688 153.483 132.049 161.166 125.382C168.845 118.784 174.445 110.101 177.289 100.384C180.114 90.6852 179.446 80.3025 175.401 71.0457C171.231 61.6717 164.705 53.5377 156.457 47.4361L159.799 46.8502C143.295 69.5774 132.165 95.7542 127.249 123.408C125.99 130.31 125.142 137.281 124.71 144.283C124.247 151.298 124.196 158.333 124.558 165.354C125.246 179.437 127.48 193.401 131.22 206.996C131.244 207.039 131.259 207.087 131.262 207.136C131.265 207.186 131.258 207.235 131.239 207.281C131.22 207.326 131.192 207.367 131.155 207.4C131.118 207.433 131.074 207.458 131.027 207.471C130.979 207.485 130.929 207.487 130.881 207.479C130.832 207.47 130.786 207.451 130.746 207.422C130.706 207.392 130.673 207.355 130.65 207.311C130.627 207.267 130.614 207.219 130.612 207.17H130.59Z"
          fill="#5352ED"/>
    <path d="M87.9069 101.99C84.6302 100.536 81.3969 98.9302 78.207 97.4112C75.0171 95.8922 71.8055 94.2213 68.659 92.5504C65.3659 91.1855 62.2301 89.4685 59.3063 87.4292C57.8784 86.3168 56.5431 85.0903 55.3135 83.7619C53.9856 82.4046 52.8204 80.8971 51.8415 79.27C51.7937 79.1863 51.7806 79.0872 51.8049 78.9939C51.8292 78.9006 51.8891 78.8206 51.9717 78.7709C52.0428 78.7515 52.1177 78.7515 52.1887 78.7709C54.0802 78.9538 55.9442 79.3543 57.7439 79.9644C59.4713 80.507 61.1544 81.1817 62.7783 81.9825C65.8847 83.7442 68.7945 85.8319 71.4583 88.2104C74.3517 90.337 77.1799 92.507 79.943 94.7204C82.7206 96.8904 85.5417 99.0604 88.2759 101.491C88.3324 101.557 88.3635 101.642 88.3635 101.729C88.3635 101.817 88.3324 101.902 88.2759 101.968C88.2217 102.004 88.1591 102.025 88.0943 102.029C88.0295 102.032 87.9649 102.019 87.9069 101.99V101.99Z"
          fill="#5352ED"/>
    <path d="M78.1199 70.5684C76.0801 69.9825 74.1705 69.2447 72.1741 68.572C70.1777 67.8993 68.3115 67.1181 66.4236 66.402C64.418 65.8938 62.5212 65.0262 60.825 63.8414C60.008 63.1363 59.2793 62.3348 58.655 61.4544C57.9295 60.471 57.3789 59.3699 57.0275 58.1994C56.9979 58.0872 57.0102 57.9679 57.0621 57.8641C57.114 57.7602 57.202 57.6789 57.3096 57.6352C58.5092 57.3897 59.7412 57.3457 60.9552 57.505C62.0248 57.6119 63.0756 57.86 64.08 58.2428C65.9347 59.15 67.605 60.3935 69.0059 61.9101C70.6334 63.1904 72.2175 64.4924 73.7799 65.8595C75.3423 67.2266 76.883 68.6154 78.3803 70.1995C78.4414 70.264 78.4754 70.3494 78.4754 70.4382C78.4754 70.527 78.4414 70.6124 78.3803 70.6769C78.3314 70.6812 78.2821 70.6736 78.2368 70.6547C78.1914 70.6358 78.1513 70.6062 78.1199 70.5684Z"
          fill="#5352ED"/>
    <path d="M149.861 92.8761C150.859 91.8562 152.031 91.0099 152.986 90.0551C153.94 89.1003 155.156 88.3408 156.262 87.5596C157.369 86.7784 158.237 85.3896 159.669 85.3896C160.388 85.2682 161.121 85.2682 161.839 85.3896C162.77 85.5391 163.663 85.8709 164.465 86.3661C164.569 86.4246 164.651 86.5158 164.698 86.6257C164.746 86.7356 164.755 86.8579 164.725 86.9737C164.544 87.8958 164.198 88.7777 163.705 89.5777C163.314 90.2159 162.823 90.7874 162.252 91.2703C161.232 92.2468 159.648 92.0081 158.324 92.2902C157 92.5723 155.633 92.8327 154.266 93.028C152.899 93.2233 151.51 93.3752 150.078 93.4403C150.032 93.4466 149.985 93.4428 149.94 93.4292C149.895 93.4157 149.854 93.3927 149.819 93.3618C149.784 93.3309 149.756 93.2929 149.737 93.2503C149.718 93.2077 149.709 93.1615 149.709 93.1148C149.717 93.067 149.735 93.0213 149.761 92.9803C149.787 92.9394 149.821 92.904 149.861 92.8761V92.8761Z"
          fill="#5352ED"/>
    <path d="M99.7036 204.926C104.276 188.53 107.014 171.678 107.867 154.678C108.329 146.211 108.286 137.725 107.738 129.263C107.738 127.115 107.502 124.967 107.266 122.947C107.029 120.928 106.879 118.651 106.643 116.631C106.041 112.335 105.568 108.231 104.752 104.085C101.821 87.4477 97.0136 71.196 90.4229 55.6409C83.8378 40.0931 75.5138 25.3406 65.6101 11.6652L68.9185 12.2453C58.889 19.6224 50.9342 29.4642 45.8242 40.8177C40.9004 52.1022 40.0573 64.7486 43.4396 76.5868C46.8981 88.3982 53.712 98.9511 63.0536 106.964C72.4215 115.055 83.6598 120.681 95.7507 123.334L92.3779 127.201L85.5678 104.15C83.4195 96.4801 81.2712 88.7677 79.1229 81.0553C76.9746 73.3429 74.8263 65.6735 72.678 57.9396C70.5297 50.2057 68.3814 42.4718 66.5124 34.7165C66.4885 34.6575 66.4839 34.5924 66.4993 34.5306C66.5148 34.4689 66.5494 34.4136 66.5983 34.3728C66.6723 34.3522 66.7514 34.3608 66.8194 34.3968C66.8873 34.4327 66.9389 34.4933 66.9635 34.5661C69.7348 42.0852 72.3343 49.6042 74.9981 57.2092C77.662 64.8142 80.1755 72.2473 82.775 79.9167C85.3744 87.5861 87.9524 94.9548 90.4444 102.667L97.9205 125.461L99.5102 130.316L94.5262 129.242C87.9593 127.929 81.5704 125.845 75.4923 123.033C69.4307 120.108 63.782 116.395 58.6925 111.991C48.3046 103.191 40.8476 91.4324 37.317 78.284C33.8422 65.0737 35.0804 51.0653 40.8187 38.6694C43.6106 32.6027 47.2251 26.9496 51.5602 21.8697C55.843 16.7637 60.751 12.2165 66.1686 8.33536L68.1236 6.96045L69.477 8.9154C89.2614 37.1726 102.326 69.5776 107.674 103.655C108.404 107.952 108.791 112.249 109.285 116.395C109.5 118.543 109.607 120.691 109.779 122.84C109.951 124.988 110.08 127.136 110.123 129.285C110.478 137.829 110.327 146.387 109.672 154.914C108.415 171.935 105.281 188.765 100.327 205.098C100.314 205.139 100.294 205.178 100.267 205.211C100.239 205.244 100.206 205.272 100.168 205.292C100.13 205.312 100.088 205.324 100.045 205.327C100.002 205.331 99.9593 205.326 99.9184 205.313C99.878 205.303 99.8401 205.285 99.807 205.26C99.7739 205.235 99.7464 205.203 99.7263 205.167C99.7061 205.13 99.6936 205.09 99.6897 205.049C99.6858 205.007 99.6906 204.966 99.7036 204.926Z"
          fill="#8B8AFF"/>
    <path d="M129.285 205.098C125.164 191.666 122.549 177.818 121.487 163.808C120.932 156.797 120.796 149.76 121.079 142.733C121.3 135.689 121.953 128.665 123.034 121.701C127.363 93.6314 138.063 66.9257 154.313 43.6321L155.666 41.6771L157.621 43.052C162.105 46.2543 166.169 50.0075 169.716 54.2232C173.336 58.4158 176.352 63.0944 178.675 68.1227C183.439 78.3983 184.479 90.0113 181.618 100.97C178.704 111.867 172.527 121.612 163.916 128.898C159.689 132.546 155.001 135.623 149.973 138.05C144.928 140.367 139.629 142.083 134.183 143.163L129.113 144.173L130.725 139.339L136.933 120.627C139.082 114.376 141.23 108.167 143.378 101.958C145.527 95.7498 147.675 89.5198 149.823 83.3327C151.971 77.1456 154.249 70.937 156.59 64.7928C156.619 64.7135 156.678 64.6488 156.755 64.6127C156.831 64.5765 156.919 64.5718 156.998 64.5995C157.074 64.6283 157.137 64.6829 157.176 64.7537C157.216 64.8244 157.229 64.9067 157.213 64.9862C155.666 71.4311 153.948 77.7256 152.315 84.1061C150.682 90.4865 148.856 96.8025 147.159 103.14C145.462 109.477 143.722 116.008 141.896 122.281L136.439 141.229L132.98 137.491C142.814 135.322 151.949 130.728 159.555 124.129C167.157 117.597 172.702 109 175.517 99.3805C178.314 89.7786 177.652 79.4997 173.648 70.3354C169.52 61.0552 163.058 53.0025 154.893 46.9619L158.201 46.3819C141.863 68.8818 130.845 94.7969 125.977 122.174C124.731 129.007 123.892 135.908 123.463 142.841C123.005 149.785 122.955 156.75 123.313 163.701C123.995 177.643 126.206 191.468 129.908 204.926C129.933 204.969 129.947 205.016 129.95 205.065C129.954 205.114 129.946 205.163 129.927 205.208C129.909 205.253 129.881 205.294 129.844 205.327C129.808 205.359 129.764 205.383 129.717 205.397C129.67 205.41 129.621 205.413 129.573 205.404C129.525 205.396 129.479 205.376 129.439 205.348C129.4 205.319 129.367 205.281 129.344 205.238C129.321 205.195 129.309 205.147 129.307 205.098H129.285Z"
          fill="#8B8AFF"/>
    <path d="M87.0282 100.97C83.7843 99.5308 80.5833 97.9411 77.4253 96.4373C74.2673 94.9335 71.0878 93.2793 67.9728 91.6251C64.7126 90.2739 61.6082 88.574 58.7136 86.5551C57.3 85.4538 55.978 84.2396 54.7608 82.9245C53.4461 81.5807 52.2925 80.0883 51.3235 78.4775C51.2761 78.3946 51.2631 78.2965 51.2872 78.2042C51.3113 78.1118 51.3706 78.0326 51.4524 77.9834C51.5227 77.9642 51.5969 77.9642 51.6672 77.9834C53.5397 78.1645 55.3852 78.561 57.1669 79.1649C58.877 79.7021 60.5432 80.3701 62.1509 81.1629C65.2262 82.9069 68.1069 84.9738 70.7441 87.3285C73.6085 89.4338 76.4085 91.5821 79.144 93.7734C81.8938 95.9217 84.6866 98.07 87.3934 100.476C87.4494 100.542 87.4802 100.626 87.4802 100.712C87.4802 100.799 87.4494 100.883 87.3934 100.949C87.3398 100.984 87.2778 101.005 87.2137 101.008C87.1496 101.012 87.0856 100.999 87.0282 100.97V100.97Z"
          fill="#8B8AFF"/>
    <path d="M77.3385 69.8626C75.3191 69.2826 73.4286 68.5522 71.4522 67.8862C69.4757 67.2202 67.6282 66.4468 65.7592 65.7379C63.7737 65.2347 61.8958 64.3759 60.2166 63.2029C59.4077 62.5048 58.6864 61.7113 58.0683 60.8398C57.35 59.8662 56.805 58.7761 56.4571 57.6173C56.4277 57.5062 56.4399 57.3882 56.4913 57.2853C56.5427 57.1825 56.6298 57.102 56.7363 57.0588C57.9239 56.8157 59.1436 56.7721 60.3455 56.9299C61.4044 57.0357 62.4446 57.2813 63.439 57.6603C65.2752 58.5584 66.9287 59.7894 68.3157 61.2909C69.9269 62.5584 71.4952 63.8474 73.0419 65.2008C74.5887 66.5543 76.114 67.9292 77.5963 69.4974C77.6568 69.5613 77.6904 69.6458 77.6904 69.7337C77.6904 69.8217 77.6568 69.9062 77.5963 69.9701C77.5479 69.9743 77.4991 69.9668 77.4542 69.9481C77.4093 69.9294 77.3696 69.9001 77.3385 69.8626Z"
          fill="#8B8AFF"/>
    <path d="M148.363 91.9473C149.352 90.9376 150.512 90.0998 151.457 89.1545C152.402 88.2093 153.605 87.4574 154.701 86.684C155.796 85.9106 156.656 84.5357 158.074 84.5357C158.785 84.4155 159.511 84.4155 160.222 84.5357C161.144 84.6837 162.027 85.0122 162.821 85.5024C162.925 85.5603 163.006 85.6506 163.052 85.7594C163.099 85.8682 163.108 85.9893 163.079 86.104C162.899 87.0168 162.557 87.8899 162.069 88.6819C161.682 89.3138 161.196 89.8795 160.63 90.3576C159.62 91.3243 158.052 91.088 156.742 91.3673C155.431 91.6466 154.078 91.9044 152.724 92.0977C151.371 92.2911 149.996 92.4414 148.578 92.5059C148.532 92.5121 148.486 92.5083 148.442 92.4949C148.397 92.4815 148.357 92.4587 148.322 92.4282C148.287 92.3976 148.26 92.3599 148.241 92.3178C148.222 92.2756 148.212 92.2298 148.213 92.1836C148.221 92.1363 148.239 92.0911 148.265 92.0505C148.29 92.0099 148.324 91.9749 148.363 91.9473V91.9473Z"
          fill="#8B8AFF"/>
    <defs>
        <filter id="filter0_f_886_442" x="-6" y="-6" width="229" height="229" filterUnits="userSpaceOnUse"
                color-interpolation-filters="sRGB">
            <feFlood flood-opacity="0" result="BackgroundImageFix"/>
            <feBlend mode="normal" in="SourceGraphic" in2="BackgroundImageFix" result="shape"/>
            <feGaussianBlur stdDeviation="3" result="effect1_foregroundBlur_886_442"/>
        </filter>
    </defs>
</svg>
