<svg width="259" height="263" viewBox="0 0 259 263" fill="none" xmlns="http://www.w3.org/2000/svg">
    <g filter="url(#filter0_f_886_477)">
        <path d="M233.956 99.3639H212.874L213.236 98.82C214.16 101.079 214.618 103.502 214.583 105.943V127.388L214.816 155.878L215.515 213.065L215.671 227.336C215.811 229.786 215.811 232.242 215.671 234.691C215.327 237.288 214.445 239.785 213.081 242.021C211.742 244.281 209.952 246.241 207.822 247.779C205.691 249.316 203.267 250.398 200.7 250.957L198.758 251.267H196.79H193.215H186.067L128.88 251.604L71.7185 251.941H64.5701H60.9959H58.9239L56.9814 251.967C54.2634 251.414 51.6881 250.307 49.4158 248.717C47.1434 247.126 45.2225 245.085 43.7724 242.72C42.3372 240.342 41.3947 237.7 41.0011 234.95C40.6644 232.024 40.8457 229.77 40.768 227.439V213.169L40.3795 155.981L40.1464 127.491V113.195V106.046C39.9816 103.138 40.4225 100.228 41.4414 97.4991L44.9638 102.679H26.4194H24.5805C23.9478 102.72 23.3134 102.632 22.7157 102.42C22.113 102.084 21.5951 101.615 21.2013 101.048C20.8075 100.482 20.5483 99.8327 20.4433 99.1507C20.3384 98.4687 20.3906 97.7718 20.5959 97.113C20.8011 96.4543 21.1541 95.8511 21.6279 95.3494L21.9646 95.0127L22.4049 94.6501L23.3114 93.7695L26.8338 90.7392L33.8527 84.6786C43.1767 76.5719 52.6043 68.6206 62.0319 60.6175C80.8353 44.5854 99.6905 28.631 118.805 12.9615L122.379 10.0089L124.166 8.55851C125.217 7.68454 126.49 7.11965 127.844 6.92681C129.175 6.73822 130.533 6.93599 131.755 7.49661C132.375 7.75062 132.952 8.10019 133.464 8.53261L134.371 9.36141L137.789 12.4435L151.568 24.7201L179.178 49.5841C188.372 57.8462 197.567 66.1083 206.865 74.2668L220.799 86.4916L227.921 92.5781L231.418 95.6084L233.101 97.2401L233.982 97.9912L234.422 98.3797C234.516 98.4619 234.584 98.5683 234.621 98.6872C234.658 98.806 234.661 98.9327 234.629 99.0531C234.566 99.1704 234.466 99.264 234.344 99.3199C234.223 99.3759 234.087 99.3913 233.956 99.3639V99.3639ZM233.956 98.5869C233.956 98.5869 233.749 98.8459 233.956 98.8718L233.516 98.5092L232.635 97.7581L230.848 96.2559L227.3 93.2774L220.151 87.3204L205.932 75.4582C196.418 67.5328 186.835 59.6937 177.183 51.941L148.434 28.631L134.06 16.9501L130.46 13.8939L129.501 13.2205L129.242 13.091C129.04 13.0274 128.823 13.0274 128.621 13.091C128.428 13.1439 128.251 13.2415 128.103 13.3759L126.367 14.904L123.026 17.9602C104.56 34.4067 85.8599 50.6201 67.1083 66.6781C57.7325 74.733 48.3826 82.8138 38.9291 90.7651L31.8584 96.7739L28.336 99.8301L27.4554 100.581L27.2223 100.763L27.4554 100.555C27.7966 100.177 28.0482 99.727 28.1917 99.2383C28.3352 98.7496 28.3668 98.2348 28.2842 97.7322C28.2032 97.2567 28.017 96.8052 27.7392 96.4109C27.4614 96.0166 27.0989 95.6893 26.6784 95.453C26.2678 95.2337 25.8198 95.0931 25.3575 95.0386H26.4712H45.0156H50.7136L48.5121 100.219C47.7769 101.955 47.4067 103.824 47.4243 105.709V112.858V127.155L47.2171 155.645L46.6214 213.169V227.439C46.6214 229.77 46.4919 232.412 46.6214 234.225C46.8656 236.203 47.5183 238.108 48.538 239.82C49.5699 241.549 50.946 243.049 52.581 244.225C54.2161 245.401 56.0752 246.229 58.0433 246.657L59.5196 246.89H61.0477H64.6219H71.7703L128.88 247.46L186.067 247.797H193.215H196.79H198.395L199.975 247.59C202.098 247.176 204.113 246.33 205.896 245.105C207.678 243.88 209.189 242.301 210.335 240.467C211.417 238.642 212.113 236.615 212.381 234.51C212.581 232.202 212.659 229.885 212.614 227.569L212.77 213.298L213.469 156.111L213.728 127.621V113.091C213.521 108.351 214.35 103.43 212.433 99.1308L212.174 98.5869H233.878H233.956Z"
              fill="#5352ED"/>
        <path d="M82.5447 97.3954C84.6426 96.7738 86.7405 96.3594 88.8125 95.8414C90.8845 95.3234 93.0083 94.9867 95.1062 94.6759C97.1223 93.9608 99.2705 93.6956 101.4 93.8989C102.492 94.1322 103.547 94.5157 104.534 95.0385C105.708 95.6353 106.769 96.433 107.668 97.3954C107.766 97.5009 107.821 97.6397 107.821 97.7839C107.821 97.9281 107.766 98.0669 107.668 98.1724C106.768 99.1275 105.707 99.9166 104.534 100.503C103.548 101.034 102.493 101.426 101.4 101.669C99.2709 101.845 97.1284 101.581 95.1062 100.892C92.9997 100.564 90.9018 100.175 88.8125 99.7264C86.7405 99.1825 84.6426 98.7681 82.5447 98.1724C82.4447 98.1323 82.3616 98.0588 82.3097 97.9643C82.2577 97.8699 82.2401 97.7603 82.2598 97.6544C82.2828 97.5914 82.3207 97.5349 82.3704 97.4898C82.42 97.4447 82.4798 97.4123 82.5447 97.3954V97.3954Z"
              fill="#5352ED"/>
        <path d="M107.277 220.136C106.655 209.931 106.241 199.726 105.723 189.548L104.557 158.96C104.221 148.755 103.21 138.551 103.78 128.372C104.137 118.1 105.306 107.872 107.277 97.784C107.277 97.681 107.318 97.5822 107.391 97.5093C107.463 97.4364 107.562 97.3955 107.665 97.3955C107.768 97.3955 107.867 97.4364 107.94 97.5093C108.013 97.5822 108.054 97.681 108.054 97.784C110.021 107.855 111.191 118.065 111.55 128.32C112.12 138.499 111.11 148.703 110.773 158.908L109.608 189.496C109.09 199.675 108.675 209.879 108.054 220.084C108.05 220.135 108.037 220.185 108.014 220.231C107.992 220.277 107.96 220.317 107.922 220.351C107.883 220.385 107.839 220.411 107.79 220.427C107.742 220.443 107.69 220.45 107.639 220.446C107.553 220.442 107.47 220.41 107.405 220.353C107.339 220.297 107.294 220.22 107.277 220.136V220.136Z"
              fill="#5352ED"/>
        <path d="M159.725 211.692C159.104 207.678 158.689 203.637 158.171 199.597C157.653 195.556 157.317 191.542 157.006 187.501C156.283 183.513 156.022 179.454 156.229 175.406C156.446 173.367 156.827 171.349 157.369 169.371C157.904 167.262 158.695 165.227 159.725 163.311C159.752 163.259 159.789 163.214 159.835 163.178C159.88 163.142 159.933 163.115 159.989 163.101C160.045 163.086 160.103 163.083 160.161 163.093C160.218 163.102 160.273 163.123 160.321 163.155C160.321 163.155 160.451 163.155 160.502 163.311C161.525 165.228 162.308 167.263 162.833 169.371C163.384 171.348 163.773 173.366 163.999 175.406C164.18 179.454 163.919 183.51 163.222 187.501C162.885 191.542 162.497 195.582 162.056 199.597C161.616 203.611 161.124 207.678 160.502 211.692C160.483 211.798 160.424 211.892 160.337 211.954C160.25 212.017 160.142 212.044 160.036 212.029C159.955 212.013 159.882 211.972 159.826 211.911C159.77 211.851 159.735 211.774 159.725 211.692V211.692Z"
              fill="#5352ED"/>
        <path d="M107.666 162.922C112.043 162.301 116.394 161.912 120.772 161.368C125.149 160.824 129.526 160.539 133.877 160.203C138.217 159.506 142.616 159.245 147.008 159.426C149.218 159.653 151.408 160.042 153.561 160.591C155.827 161.117 158.025 161.899 160.114 162.922C160.212 162.982 160.285 163.075 160.318 163.185C160.352 163.295 160.343 163.414 160.295 163.518C160.255 163.596 160.192 163.66 160.114 163.699C158.026 164.731 155.827 165.521 153.561 166.056C151.408 166.597 149.218 166.978 147.008 167.196C142.616 167.389 138.216 167.129 133.877 166.419C129.526 166.108 125.149 165.719 120.772 165.253C116.394 164.787 112.043 164.321 107.666 163.699C107.566 163.68 107.476 163.625 107.413 163.544C107.351 163.462 107.321 163.361 107.329 163.259C107.344 163.175 107.384 163.098 107.445 163.037C107.505 162.977 107.582 162.937 107.666 162.922Z"
              fill="#5352ED"/>
    </g>
    <path d="M233.956 99.3639H212.874L213.236 98.82C214.16 101.079 214.618 103.502 214.583 105.943V127.388L214.816 155.878L215.515 213.065L215.671 227.336C215.811 229.786 215.811 232.242 215.671 234.691C215.327 237.288 214.445 239.785 213.081 242.021C211.742 244.281 209.952 246.241 207.822 247.779C205.691 249.316 203.267 250.398 200.7 250.957L198.758 251.267H196.79H193.215H186.067L128.88 251.604L71.7185 251.941H64.5701H60.9959H58.9239L56.9814 251.967C54.2634 251.414 51.6881 250.307 49.4158 248.717C47.1434 247.126 45.2225 245.085 43.7724 242.72C42.3372 240.342 41.3947 237.7 41.0011 234.95C40.6644 232.024 40.8457 229.77 40.768 227.439V213.169L40.3795 155.981L40.1464 127.491V113.195V106.046C39.9816 103.138 40.4225 100.228 41.4414 97.4991L44.9638 102.679H26.4194H24.5805C23.9478 102.72 23.3134 102.632 22.7157 102.42C22.113 102.084 21.5951 101.615 21.2013 101.048C20.8075 100.482 20.5483 99.8327 20.4433 99.1507C20.3384 98.4687 20.3906 97.7718 20.5959 97.113C20.8011 96.4543 21.1541 95.8511 21.6279 95.3494L21.9646 95.0127L22.4049 94.6501L23.3114 93.7695L26.8338 90.7392L33.8527 84.6786C43.1767 76.5719 52.6043 68.6206 62.0319 60.6175C80.8353 44.5854 99.6905 28.631 118.805 12.9615L122.379 10.0089L124.166 8.55851C125.217 7.68454 126.49 7.11965 127.844 6.92681C129.175 6.73822 130.533 6.93599 131.755 7.49661C132.375 7.75062 132.952 8.10019 133.464 8.53261L134.371 9.36141L137.789 12.4435L151.568 24.7201L179.178 49.5841C188.372 57.8462 197.567 66.1083 206.865 74.2668L220.799 86.4916L227.921 92.5781L231.418 95.6084L233.101 97.2401L233.982 97.9912L234.422 98.3797C234.516 98.4619 234.584 98.5683 234.621 98.6872C234.658 98.806 234.661 98.9327 234.629 99.0531C234.566 99.1704 234.466 99.264 234.344 99.3199C234.223 99.3759 234.087 99.3913 233.956 99.3639V99.3639ZM233.956 98.5869C233.956 98.5869 233.749 98.8459 233.956 98.8718L233.516 98.5092L232.635 97.7581L230.848 96.2559L227.3 93.2774L220.151 87.3204L205.932 75.4582C196.418 67.5328 186.835 59.6937 177.183 51.941L148.434 28.631L134.06 16.9501L130.46 13.8939L129.501 13.2205L129.242 13.091C129.04 13.0274 128.823 13.0274 128.621 13.091C128.428 13.1439 128.251 13.2415 128.103 13.3759L126.367 14.904L123.026 17.9602C104.56 34.4067 85.8599 50.6201 67.1083 66.6781C57.7325 74.733 48.3826 82.8138 38.9291 90.7651L31.8584 96.7739L28.336 99.8301L27.4554 100.581L27.2223 100.763L27.4554 100.555C27.7966 100.177 28.0482 99.727 28.1917 99.2383C28.3352 98.7496 28.3668 98.2348 28.2842 97.7322C28.2032 97.2567 28.017 96.8052 27.7392 96.4109C27.4614 96.0166 27.0989 95.6893 26.6784 95.453C26.2678 95.2337 25.8198 95.0931 25.3575 95.0386H26.4712H45.0156H50.7136L48.5121 100.219C47.7769 101.955 47.4067 103.824 47.4243 105.709V112.858V127.155L47.2171 155.645L46.6214 213.169V227.439C46.6214 229.77 46.4919 232.412 46.6214 234.225C46.8656 236.203 47.5183 238.108 48.538 239.82C49.5699 241.549 50.946 243.049 52.581 244.225C54.2161 245.401 56.0752 246.229 58.0433 246.657L59.5196 246.89H61.0477H64.6219H71.7703L128.88 247.46L186.067 247.797H193.215H196.79H198.395L199.975 247.59C202.098 247.176 204.113 246.33 205.896 245.105C207.678 243.88 209.189 242.301 210.335 240.467C211.417 238.642 212.113 236.615 212.381 234.51C212.581 232.202 212.659 229.885 212.614 227.569L212.77 213.298L213.469 156.111L213.728 127.621V113.091C213.521 108.351 214.35 103.43 212.433 99.1308L212.174 98.5869H233.878H233.956Z"
          fill="#5352ED"/>
    <path d="M82.5447 97.3954C84.6426 96.7738 86.7405 96.3594 88.8125 95.8414C90.8845 95.3234 93.0083 94.9867 95.1062 94.6759C97.1223 93.9608 99.2705 93.6956 101.4 93.8989C102.492 94.1322 103.547 94.5157 104.534 95.0385C105.708 95.6353 106.769 96.433 107.668 97.3954C107.766 97.5009 107.821 97.6397 107.821 97.7839C107.821 97.9281 107.766 98.0669 107.668 98.1724C106.768 99.1275 105.707 99.9166 104.534 100.503C103.548 101.034 102.493 101.426 101.4 101.669C99.2709 101.845 97.1284 101.581 95.1062 100.892C92.9997 100.564 90.9018 100.175 88.8125 99.7264C86.7405 99.1825 84.6426 98.7681 82.5447 98.1724C82.4447 98.1323 82.3616 98.0588 82.3097 97.9643C82.2577 97.8699 82.2401 97.7603 82.2598 97.6544C82.2828 97.5914 82.3207 97.5349 82.3704 97.4898C82.42 97.4447 82.4798 97.4123 82.5447 97.3954V97.3954Z"
          fill="#5352ED"/>
    <path d="M107.277 220.136C106.655 209.931 106.241 199.726 105.723 189.548L104.557 158.96C104.221 148.755 103.21 138.551 103.78 128.372C104.137 118.1 105.306 107.872 107.277 97.784C107.277 97.681 107.318 97.5822 107.391 97.5093C107.463 97.4364 107.562 97.3955 107.665 97.3955C107.768 97.3955 107.867 97.4364 107.94 97.5093C108.013 97.5822 108.054 97.681 108.054 97.784C110.021 107.855 111.191 118.065 111.55 128.32C112.12 138.499 111.11 148.703 110.773 158.908L109.608 189.496C109.09 199.675 108.675 209.879 108.054 220.084C108.05 220.135 108.037 220.185 108.014 220.231C107.992 220.277 107.96 220.317 107.922 220.351C107.883 220.385 107.839 220.411 107.79 220.427C107.742 220.443 107.69 220.45 107.639 220.446C107.553 220.442 107.47 220.41 107.405 220.353C107.339 220.297 107.294 220.22 107.277 220.136V220.136Z"
          fill="#5352ED"/>
    <path d="M159.725 211.692C159.104 207.678 158.689 203.637 158.171 199.597C157.653 195.556 157.317 191.542 157.006 187.501C156.283 183.513 156.022 179.454 156.229 175.406C156.446 173.367 156.827 171.349 157.369 169.371C157.904 167.262 158.695 165.227 159.725 163.311C159.752 163.259 159.789 163.214 159.835 163.178C159.88 163.142 159.933 163.115 159.989 163.101C160.045 163.086 160.103 163.083 160.161 163.093C160.218 163.102 160.273 163.123 160.321 163.155C160.321 163.155 160.451 163.155 160.502 163.311C161.525 165.228 162.308 167.263 162.833 169.371C163.384 171.348 163.773 173.366 163.999 175.406C164.18 179.454 163.919 183.51 163.222 187.501C162.885 191.542 162.497 195.582 162.056 199.597C161.616 203.611 161.124 207.678 160.502 211.692C160.483 211.798 160.424 211.892 160.337 211.954C160.25 212.017 160.142 212.044 160.036 212.029C159.955 212.013 159.882 211.972 159.826 211.911C159.77 211.851 159.735 211.774 159.725 211.692V211.692Z"
          fill="#5352ED"/>
    <path d="M107.666 162.922C112.043 162.301 116.394 161.912 120.772 161.368C125.149 160.824 129.526 160.539 133.877 160.203C138.217 159.506 142.616 159.245 147.008 159.426C149.218 159.653 151.408 160.042 153.561 160.591C155.827 161.117 158.025 161.899 160.114 162.922C160.212 162.982 160.285 163.075 160.318 163.185C160.352 163.295 160.343 163.414 160.295 163.518C160.255 163.596 160.192 163.66 160.114 163.699C158.026 164.731 155.827 165.521 153.561 166.056C151.408 166.597 149.218 166.978 147.008 167.196C142.616 167.389 138.216 167.129 133.877 166.419C129.526 166.108 125.149 165.719 120.772 165.253C116.394 164.787 112.043 164.321 107.666 163.699C107.566 163.68 107.476 163.625 107.413 163.544C107.351 163.462 107.321 163.361 107.329 163.259C107.344 163.175 107.384 163.098 107.445 163.037C107.505 162.977 107.582 162.937 107.666 162.922Z"
          fill="#5352ED"/>
    <path d="M234.203 98.4103H213.331L213.69 97.8718C214.605 100.109 215.059 102.507 215.024 104.923V126.154L215.255 154.359L215.947 210.974L216.101 225.102C216.24 227.528 216.24 229.959 216.101 232.384C215.761 234.955 214.887 237.427 213.537 239.641C212.211 241.878 210.439 243.819 208.33 245.341C206.221 246.863 203.821 247.934 201.28 248.487L199.357 248.795H197.408H193.87H186.793L130.178 249.128L73.588 249.461H66.5111H62.9726H60.9214L58.9983 249.487C56.3074 248.939 53.758 247.844 51.5084 246.269C49.2587 244.695 47.357 242.674 45.9214 240.333C44.5005 237.979 43.5675 235.363 43.1778 232.641C42.8445 229.743 43.0239 227.513 42.947 225.205V211.077L42.5624 154.461L42.3316 126.256V112.103V105.026C42.1685 102.147 42.605 99.2654 43.6137 96.5641L47.1009 101.692H28.7419H26.9214C26.295 101.733 25.667 101.645 25.0753 101.436C24.4786 101.103 23.9659 100.639 23.576 100.078C23.1861 99.5169 22.9295 98.8743 22.8256 98.1992C22.7217 97.524 22.7734 96.8341 22.9766 96.1819C23.1799 95.5297 23.5293 94.9325 23.9983 94.4359L24.3317 94.1026L24.7676 93.7436L25.665 92.8718L29.1522 89.8718L36.1009 83.8718C45.3316 75.8462 54.665 67.9744 63.9983 60.0513C82.6137 44.1796 101.28 28.3847 120.203 12.8719L123.742 9.94883L125.511 8.51293C126.552 7.6477 127.812 7.08846 129.152 6.89755C130.47 6.71085 131.814 6.90664 133.024 7.46165C133.638 7.71313 134.209 8.0592 134.716 8.48729L135.614 9.3078L138.998 12.3591L152.639 24.5129L179.973 49.1283C189.075 57.3078 198.178 65.4872 207.383 73.5641L221.178 85.6667L228.229 91.6923L231.69 94.6923L233.357 96.3077L234.229 97.0513L234.665 97.4359C234.757 97.5173 234.825 97.6226 234.861 97.7403C234.898 97.858 234.901 97.9834 234.87 98.1026C234.807 98.2187 234.708 98.3113 234.588 98.3667C234.467 98.4222 234.333 98.4374 234.203 98.4103V98.4103ZM234.203 97.641C234.203 97.641 233.998 97.8975 234.203 97.9231L233.767 97.5641L232.896 96.8205L231.126 95.3333L227.614 92.3846L220.537 86.4872L206.46 74.7436C197.041 66.8975 187.554 59.1368 177.998 51.4616L149.537 28.3847L135.306 16.8206L131.742 13.795L130.793 13.1283L130.537 13.0001C130.336 12.9371 130.122 12.9371 129.921 13.0001C129.731 13.0524 129.555 13.1491 129.408 13.2822L127.691 14.795L124.383 17.8206C106.101 34.1026 87.588 50.1539 69.0239 66.0513C59.7419 74.0257 50.4855 82.0257 41.1265 89.8975L34.1265 95.8462L30.6393 98.8718L29.7676 99.6154L29.5368 99.7949L29.7676 99.5898C30.1053 99.2154 30.3545 98.7697 30.4965 98.2859C30.6386 97.8021 30.6699 97.2925 30.5881 96.7949C30.5079 96.3241 30.3236 95.8772 30.0485 95.4868C29.7735 95.0964 29.4147 94.7724 28.9983 94.5385C28.5918 94.3213 28.1483 94.1822 27.6906 94.1282H28.7932H47.1521H52.7932L50.6137 99.2564C49.8859 100.975 49.5193 102.826 49.5368 104.692V111.769V125.923L49.3316 154.128L48.7419 211.077V225.205C48.7419 227.513 48.6137 230.128 48.7419 231.923C48.9837 233.881 49.6298 235.767 50.6393 237.461C51.6609 239.174 53.0233 240.658 54.642 241.823C56.2606 242.987 58.1012 243.807 60.0496 244.231L61.5111 244.461H63.0239H66.5624H73.6393L130.178 245.025L186.793 245.359H193.87H197.408H198.998L200.562 245.154C202.664 244.744 204.659 243.907 206.423 242.694C208.188 241.481 209.684 239.918 210.819 238.102C211.889 236.296 212.579 234.288 212.844 232.205C213.042 229.92 213.119 227.626 213.075 225.333L213.229 211.205L213.921 154.59L214.178 126.385V112C213.972 107.308 214.793 102.436 212.896 98.1795L212.639 97.641H234.126H234.203Z"
          fill="#8B8AFF"/>
    <path d="M84.3074 96.4616C86.3843 95.8462 88.4613 95.4359 90.5125 94.9231C92.5638 94.4103 94.6664 94.0769 96.7433 93.7692C98.7392 93.0613 100.866 92.7988 102.974 93C104.055 93.231 105.099 93.6107 106.077 94.1282C107.239 94.7191 108.289 95.5088 109.179 96.4616C109.277 96.566 109.331 96.7034 109.331 96.8462C109.331 96.9889 109.277 97.1264 109.179 97.2308C108.289 98.1764 107.238 98.9576 106.077 99.5385C105.1 100.064 104.056 100.452 102.974 100.692C100.866 100.867 98.7453 100.605 96.7433 99.9231C94.6578 99.5983 92.5809 99.2137 90.5125 98.7693C88.4613 98.2308 86.3843 97.8205 84.3074 97.2308C84.2084 97.1911 84.1261 97.1183 84.0747 97.0248C84.0233 96.9313 84.0058 96.8229 84.0254 96.718C84.0481 96.6556 84.0857 96.5997 84.1348 96.555C84.1839 96.5104 84.2432 96.4783 84.3074 96.4616V96.4616Z"
          fill="#8B8AFF"/>
    <path d="M108.795 217.974C108.179 207.872 107.769 197.769 107.256 187.692L106.102 157.41C105.769 147.308 104.769 137.205 105.333 127.128C105.687 116.959 106.844 106.833 108.795 96.8462C108.795 96.7442 108.835 96.6463 108.907 96.5742C108.98 96.5021 109.077 96.4615 109.179 96.4615C109.281 96.4615 109.379 96.5021 109.451 96.5742C109.523 96.6463 109.564 96.7442 109.564 96.8462C111.512 106.816 112.669 116.925 113.025 127.077C113.59 137.154 112.59 147.256 112.256 157.359L111.102 187.641C110.59 197.718 110.179 207.82 109.564 217.923C109.561 217.974 109.547 218.023 109.525 218.068C109.503 218.114 109.472 218.154 109.433 218.188C109.395 218.221 109.351 218.247 109.303 218.263C109.255 218.279 109.204 218.285 109.154 218.282C109.068 218.278 108.986 218.246 108.921 218.19C108.856 218.134 108.812 218.058 108.795 217.974V217.974Z"
          fill="#8B8AFF"/>
    <path d="M160.719 209.615C160.104 205.641 159.693 201.641 159.181 197.641C158.668 193.641 158.334 189.666 158.027 185.666C157.311 181.718 157.053 177.7 157.258 173.692C157.472 171.673 157.849 169.675 158.386 167.718C158.915 165.63 159.699 163.615 160.719 161.718C160.746 161.667 160.782 161.622 160.827 161.586C160.872 161.55 160.924 161.524 160.98 161.509C161.035 161.495 161.093 161.492 161.15 161.502C161.207 161.511 161.261 161.532 161.309 161.564C161.309 161.564 161.437 161.564 161.488 161.718C162.5 163.616 163.275 165.631 163.796 167.718C164.341 169.675 164.727 171.673 164.95 173.692C165.129 177.699 164.871 181.715 164.181 185.666C163.847 189.666 163.463 193.666 163.027 197.641C162.591 201.615 162.104 205.641 161.488 209.615C161.469 209.719 161.411 209.813 161.325 209.875C161.239 209.937 161.132 209.963 161.027 209.948C160.947 209.933 160.874 209.892 160.819 209.832C160.763 209.772 160.728 209.696 160.719 209.615V209.615Z"
          fill="#8B8AFF"/>
    <path d="M109.18 161.333C113.514 160.718 117.821 160.333 122.155 159.795C126.488 159.256 130.821 158.974 135.129 158.641C139.426 157.951 143.781 157.693 148.129 157.871C150.317 158.096 152.485 158.482 154.616 159.025C156.859 159.546 159.036 160.32 161.103 161.333C161.201 161.392 161.273 161.485 161.306 161.594C161.339 161.702 161.331 161.82 161.283 161.923C161.243 162 161.181 162.063 161.103 162.102C159.036 163.123 156.86 163.906 154.616 164.436C152.484 164.971 150.316 165.348 148.129 165.564C143.781 165.755 139.424 165.498 135.129 164.795C130.821 164.487 126.488 164.102 122.155 163.641C117.821 163.179 113.514 162.718 109.18 162.102C109.081 162.084 108.992 162.029 108.93 161.948C108.869 161.868 108.839 161.767 108.847 161.666C108.862 161.583 108.901 161.507 108.961 161.447C109.021 161.387 109.097 161.348 109.18 161.333Z"
          fill="#8B8AFF"/>
    <defs>
        <filter id="filter0_f_886_477" x="-6" y="-2" width="271" height="271" filterUnits="userSpaceOnUse"
                color-interpolation-filters="sRGB">
            <feFlood flood-opacity="0" result="BackgroundImageFix"/>
            <feBlend mode="normal" in="SourceGraphic" in2="BackgroundImageFix" result="shape"/>
            <feGaussianBlur stdDeviation="3" result="effect1_foregroundBlur_886_477"/>
        </filter>
    </defs>
</svg>
