<svg id="Calque_1" data-name="Calque 1" xmlns="http://www.w3.org/2000/svg" viewBox="0 0 897.22 181.5"><defs><style>.cls-1{fill:#f96;}.cls-2{fill:#fff;}.cls-3{fill:#66f;}</style></defs><path class="cls-1" d="M452.51,124.37a11.63,11.63,0,0,1,0,16.11,10.79,10.79,0,0,1-7.92,3.27,11.33,11.33,0,0,1-.45-22.66h.45A10.89,10.89,0,0,1,452.51,124.37Z"/><path class="cls-2" d="M414.25,57.31v85.35H396.6v-10a28.54,28.54,0,0,1-10.92,8.28,34.76,34.76,0,0,1-14.33,3,38.36,38.36,0,0,1-18.06-4.19,27.53,27.53,0,0,1-4-2.56l0,.06a29.84,29.84,0,0,1-8.51-9.83c-3.05-5.46-4.55-12.1-4.55-19.83V57.31h17.51v47.54c0,6.85,1.54,12.3,4.63,16.31a.14.14,0,0,1,0-.06,14.6,14.6,0,0,0,1.09,1.27c3.82,4.09,9.05,6.1,15.65,6.1s11.87-2,15.74-6.1,5.82-10,5.78-17.61V57.31Z"/><path class="cls-2" d="M319.35,92.93v28.39H302.29l-.19-25.79c0-7.56-1.86-13.33-5.64-17.34s-8.91-6-15.42-6-11.69,2-15.51,6-5.74,9.78-5.74,17.34v47H242.37V41.84h-11.6V29.51h29V68.14A29.68,29.68,0,0,1,271,59.9,37.25,37.25,0,0,1,285.86,57a35.15,35.15,0,0,1,17.2,4.14A29.51,29.51,0,0,1,315,73.37Q319.34,81.49,319.35,92.93Z"/><path class="cls-2" d="M193.17,114.32c-.13-.37-.27-.73-.39-1.1,0,0,0,0,0,0C192.91,113.58,193,114,193.17,114.32Z"/><path class="cls-2" d="M193.74,115.94q-.3-.81-.57-1.62C193.35,114.86,193.55,115.4,193.74,115.94Z"/><path class="cls-2" d="M195.37,57.36V69.73A32.26,32.26,0,0,0,191,65.09c-.06.26-.13.53-.19.79L191,65a39.27,39.27,0,0,0-7.64-5.19,37.49,37.49,0,0,0-17.61-4,39,39,0,0,0-34.94,20.92,47.09,47.09,0,0,0-5.37,22.8,48.83,48.83,0,0,0,5.37,23,40.43,40.43,0,0,0,14.51,15.83A39.59,39.59,0,0,0,183.09,140,34.64,34.64,0,0,0,195.33,130v12.69h17.83V57.36Zm-2.59,55.86s0,0,0,0v0c-.32.68-.68,1.41-1.05,2.09a25.64,25.64,0,0,1-9.55,10,24.3,24.3,0,0,1-12.69,3.41,24.79,24.79,0,0,1-12.65-3.5,25.53,25.53,0,0,1-9.6-10.15,32.13,32.13,0,0,1-3.64-15.51,30.6,30.6,0,0,1,3.64-15.24,25.41,25.41,0,0,1,34.94-9.69,25.75,25.75,0,0,1,6.46,5.46l.12-.75c0,.28,0,.56-.07.84a24.72,24.72,0,0,1,3,4.46,31.06,31.06,0,0,1,3.64,15.33,32.51,32.51,0,0,1-2.58,13.26c.12.38.25.75.38,1.12C193,114,192.9,113.59,192.78,113.22Z"/><path class="cls-2" d="M193.17,114.32c-.13-.37-.27-.73-.39-1.1,0,0,0,0,0,0C192.91,113.58,193,114,193.17,114.32Z"/><path class="cls-2" d="M193.74,115.94q-.3-.81-.57-1.62C193.35,114.86,193.55,115.4,193.74,115.94Z"/><path class="cls-2" d="M108.11,28V142.66H90.28V129.83a32.67,32.67,0,0,1-12,10.24,37.31,37.31,0,0,1-17.61,4,38.73,38.73,0,0,1-20.38-5.64,39.83,39.83,0,0,1-14.56-15.83A49,49,0,0,1,20.4,99.58a47,47,0,0,1,5.37-22.8A38.93,38.93,0,0,1,60.84,55.85a40.8,40.8,0,0,1,16.52,3.64,33.53,33.53,0,0,1,12.92,9.69V28ZM86.64,115.32a31.73,31.73,0,0,0,3.64-15.43h0a31.06,31.06,0,0,0-3.64-15.33,25.9,25.9,0,0,0-9.51-9.92,25.61,25.61,0,0,0-25.38-.09,24.84,24.84,0,0,0-9.51,9.78A30.64,30.64,0,0,0,38.6,99.58a32.19,32.19,0,0,0,3.64,15.51,25.56,25.56,0,0,0,9.64,10.14,24.93,24.93,0,0,0,25.34.1A26.14,26.14,0,0,0,86.64,115.32Z"/><path class="cls-3" d="M502.6,101.87h-9.11v41.26H480.14V101.87h-5.93V91.05h5.93V88.42q0-9.58,5.45-14.1T502,70.09V81.18q-4.8-.09-6.67,1.6c-1.26,1.13-1.88,3.17-1.88,6.11v2.16h9.11Z"/><path class="cls-3" d="M516.47,82.64a7.7,7.7,0,0,1,0-11,8.66,8.66,0,0,1,11.56,0,7.73,7.73,0,0,1,0,11,8.66,8.66,0,0,1-11.56,0Zm12.27,8.41v52.08H515.58V91.05Z"/><path class="cls-3" d="M590,96.18q5.73,5.88,5.73,16.4v30.55H582.6V114.37q0-6.21-3.1-9.54a11,11,0,0,0-8.46-3.34,11.23,11.23,0,0,0-8.6,3.34q-3.15,3.33-3.15,9.54v28.76H546.13V91.05h13.16v6.49A18.22,18.22,0,0,1,566,92.23a20.88,20.88,0,0,1,9-1.93Q584.29,90.3,590,96.18Z"/><path class="cls-3" d="M612.45,102.9A23.1,23.1,0,0,1,621,93.5a22.82,22.82,0,0,1,12.08-3.29,21.16,21.16,0,0,1,10.2,2.35,20.76,20.76,0,0,1,7,5.92V91.05h13.25v52.08H650.29v-7.61a19.59,19.59,0,0,1-7,6.06A21.39,21.39,0,0,1,633,144a22.2,22.2,0,0,1-12-3.38,23.72,23.72,0,0,1-8.55-9.55,30.61,30.61,0,0,1-3.15-14.14A30.12,30.12,0,0,1,612.45,102.9Zm36,6a13.36,13.36,0,0,0-5.08-5.27,13.59,13.59,0,0,0-6.86-1.83,13.23,13.23,0,0,0-11.8,7,16.25,16.25,0,0,0-1.93,8.13,16.81,16.81,0,0,0,1.93,8.22,13.84,13.84,0,0,0,5.08,5.41,12.9,12.9,0,0,0,6.72,1.88,13.5,13.5,0,0,0,6.86-1.84,13.27,13.27,0,0,0,5.08-5.26,18.93,18.93,0,0,0,0-16.45Z"/><path class="cls-3" d="M724.74,96.18q5.73,5.88,5.73,16.4v30.55H717.31V114.37q0-6.21-3.1-9.54a11,11,0,0,0-8.46-3.34,11.23,11.23,0,0,0-8.6,3.34q-3.15,3.33-3.15,9.54v28.76H680.84V91.05H694v6.49a18.3,18.3,0,0,1,6.72-5.31,20.88,20.88,0,0,1,9-1.93Q719,90.3,724.74,96.18Z"/><path class="cls-3" d="M747.3,103a23.45,23.45,0,0,1,9.12-9.4,26.33,26.33,0,0,1,13.35-3.34q9.68,0,16,4.84a23.56,23.56,0,0,1,8.5,13.58H780.11a10.4,10.4,0,0,0-3.81-5.31,11.06,11.06,0,0,0-6.63-1.92,10.85,10.85,0,0,0-8.93,4.09q-3.29,4.08-3.29,11.6c0,5,1.1,8.79,3.29,11.52a10.85,10.85,0,0,0,8.93,4.09q8,0,10.44-7.14H794.3A24,24,0,0,1,785.75,139q-6.39,5-16,5a26.33,26.33,0,0,1-13.35-3.34,23.45,23.45,0,0,1-9.12-9.4A29.23,29.23,0,0,1,744,117.09,29.24,29.24,0,0,1,747.3,103Z"/><path class="cls-3" d="M856.44,121H818.37a12.94,12.94,0,0,0,4,8.84,12.18,12.18,0,0,0,8.55,3.2q7.33,0,10.44-6.3H855.5a23.73,23.73,0,0,1-8.65,12.36q-6.39,4.85-15.7,4.84a27.13,27.13,0,0,1-13.49-3.34,23.41,23.41,0,0,1-9.3-9.44A28.94,28.94,0,0,1,805,117.09a29.52,29.52,0,0,1,3.29-14.19,23,23,0,0,1,9.21-9.4,29.58,29.58,0,0,1,26.94-.09,22.56,22.56,0,0,1,9.12,9.07A27.45,27.45,0,0,1,856.82,116,31,31,0,0,1,856.44,121Zm-13.25-8.83a10.45,10.45,0,0,0-3.67-8.13,13,13,0,0,0-8.74-3.06,12,12,0,0,0-8.23,3,13,13,0,0,0-4.09,8.23Z"/></svg>