<svg width="64" height="64" viewBox="0 0 64 64" fill="none" xmlns="http://www.w3.org/2000/svg">
<path fill-rule="evenodd" clip-rule="evenodd" d="M10 0H54C59.5228 0 64 4.47716 64 10V54C64 59.5228 59.5228 64 54 64H10C4.47717 64 0 59.5228 0 54V10C0 4.47716 4.47717 0 10 0ZM19.4 23.4C19.6 23.6 19.8 24 19.8 24.4V38.4C20 39 19.8 39.4 19.4 39.8L16 43.8V44.4H25.4V43.8L22 39.8C21.8 39.4 21.6 39 21.6 38.4V26.2L30 44.4H30.8L38 26.2V40.8C38 41.2 38 41.4 37.8 41.6L35.2 44.2V44.8H47.8V44.2L45.4 41.8C45.2 41.6 45.2 41.2 45.2 41V23C45 22.6 45.2 22.4 45.4 22.2L48 19.8V19.2H39.2L32.8 35L25.6 19.2H16.4V19.8L19.4 23.4Z" fill="white"/>
</svg>
