<svg width="301" height="293" viewBox="0 0 301 293" fill="none" xmlns="http://www.w3.org/2000/svg">
<g filter="url(#filter0_f_886_412)">
<path d="M264.156 70.32C251.195 60.834 236.246 54.4215 220.44 51.568C216.499 50.8863 212.514 50.4945 208.515 50.396H202.655L196.795 51.0406C188.922 52.2011 181.238 54.3981 173.941 57.5745C159.37 64.1618 145.993 73.1225 134.357 84.091C122.661 94.8957 112.338 107.098 103.621 120.423L103.445 117.493L124.131 140.64L127.647 144.596L122.344 144.83L14.4907 149.811L10.4766 149.987L11.0919 145.973L27.0018 38.09L28.3496 29.0656L34.444 35.9511L54.368 58.3656L47.9513 58.1019C62.504 42.7422 80.1231 30.6134 99.6658 22.5024C109.47 18.5141 119.707 15.6822 130.167 14.064C140.611 12.6012 151.185 12.3063 161.694 13.185C172.139 14.0631 182.451 16.1273 192.43 19.338C202.358 22.4512 211.948 26.5542 221.056 31.5854C230.048 36.7215 238.595 42.6021 246.605 49.1654L252.465 54.1757L258.091 59.479C259.995 61.2077 261.665 63.1708 263.453 65.0167L266.119 67.9467C266.412 68.2161 266.625 68.5607 266.734 68.9429C266.796 69.27 266.758 69.6078 266.626 69.9133C266.494 70.2187 266.274 70.4777 265.994 70.6572C265.713 70.8366 265.386 70.9283 265.053 70.9204C264.721 70.9126 264.398 70.8055 264.127 70.613L264.156 70.32ZM264.654 69.6168C264.741 69.6709 264.838 69.7069 264.938 69.7228C265.039 69.7387 265.142 69.7341 265.242 69.7094C265.341 69.6846 265.434 69.6401 265.515 69.5786C265.597 69.5171 265.665 69.4399 265.717 69.3514C265.768 69.2629 265.8 69.1651 265.813 69.0637C265.826 68.9622 265.818 68.8594 265.789 68.7611C265.761 68.6629 265.714 68.5713 265.65 68.4917C265.586 68.4122 265.506 68.3465 265.416 68.2983L262.72 65.5441C260.904 63.7568 259.234 61.8523 257.27 60.1822L251.586 55.084L245.726 50.3081C237.614 44.1435 228.92 38.7855 219.766 34.3103C201.55 25.4849 181.689 20.5647 161.459 19.8654C141.433 19.1734 121.496 22.8528 103.035 30.6478C84.6877 38.5789 68.0961 50.0716 54.2215 64.46L50.8813 67.8002L47.6583 64.167L28.0273 41.4595L35.4695 39.3206L17.6258 146.998L14.227 143.189L122.022 139.761L120.234 143.951L100.105 120.687L98.9333 119.339L99.9002 117.903C109.024 104.412 119.857 92.1605 132.13 81.454C144.234 70.5838 158.107 61.8635 173.15 55.67C180.675 52.6646 188.552 50.6267 196.59 49.6049L202.655 49.1068H208.72C212.757 49.2959 216.773 49.7954 220.733 50.6011C236.625 53.6663 251.654 60.1662 264.771 69.6461L264.654 69.6168Z" fill="#5352ED"/>
<path d="M36.8453 222.68C49.806 232.166 64.7552 238.579 80.5609 241.432C84.5019 242.114 88.4877 242.505 92.486 242.604H98.346L104.206 241.959C112.079 240.799 119.764 238.602 127.06 235.425C141.559 228.866 154.874 219.956 166.469 209.055C178.236 198.216 188.618 185.964 197.38 172.577L197.556 175.507L176.87 152.36L173.354 148.405L178.657 148.17L286.393 143.16L290.408 142.984L289.792 146.998L274 254.91L272.652 263.934L266.557 257.049L246.633 234.634H253.197C238.601 250.011 220.931 262.141 201.336 270.234C191.542 274.312 181.306 277.233 170.834 278.936C160.391 280.399 149.816 280.694 139.307 279.815C128.862 278.937 118.55 276.873 108.572 273.662C98.6435 270.549 89.0532 266.446 79.9456 261.415C70.953 256.279 62.4066 250.398 54.396 243.835L48.536 238.824L42.9104 233.521C41.0059 231.792 39.3358 229.829 37.5485 227.983L34.8822 225.053C34.5896 224.784 34.3768 224.439 34.2669 224.057C34.2056 223.73 34.2433 223.392 34.3753 223.087C34.5073 222.781 34.7275 222.522 35.0077 222.343C35.2878 222.163 35.6153 222.072 35.9479 222.08C36.2805 222.087 36.6032 222.195 36.8746 222.387L36.8453 222.68ZM36.3472 223.383C36.2605 223.329 36.1638 223.293 36.0629 223.277C35.9619 223.261 35.8588 223.266 35.7597 223.291C35.6606 223.315 35.5674 223.36 35.4858 223.421C35.4042 223.483 35.3358 223.56 35.2847 223.649C35.2336 223.737 35.2008 223.835 35.1883 223.936C35.1758 224.038 35.1838 224.141 35.2118 224.239C35.2399 224.337 35.2874 224.429 35.3516 224.508C35.4158 224.588 35.4953 224.654 35.5854 224.702L38.281 227.456C40.0976 229.243 41.7677 231.148 43.7308 232.818L49.415 237.916L55.4215 242.692C63.5336 248.857 72.2281 254.215 81.3813 258.69C99.598 267.515 119.458 272.435 139.688 273.135C159.666 273.805 179.551 270.126 197.966 262.352C216.301 254.465 232.892 243.022 246.78 228.687L250.12 225.2L253.343 228.833L272.974 251.54L265.532 253.679L283.376 146.002L286.774 149.811L178.98 153.239L180.767 149.049L200.896 172.313L202.068 173.661L201.101 175.097C191.977 188.588 181.144 200.839 168.871 211.546C156.768 222.416 142.894 231.137 127.851 237.33C120.326 240.335 112.45 242.373 104.411 243.395L98.346 243.893H92.2809C88.2442 243.704 84.228 243.205 80.2679 242.399C64.3767 239.334 49.347 232.834 36.23 223.354L36.3472 223.383Z" fill="#5352ED"/>
</g>
<g filter="url(#filter1_d_886_412)">
<path d="M264.156 70.32C251.195 60.834 236.246 54.4215 220.44 51.568C216.499 50.8863 212.514 50.4945 208.515 50.396H202.655L196.795 51.0406C188.922 52.2011 181.238 54.3981 173.941 57.5745C159.37 64.1618 145.993 73.1225 134.357 84.091C122.661 94.8957 112.338 107.098 103.621 120.423L103.445 117.493L124.131 140.64L127.647 144.596L122.344 144.83L14.4907 149.811L10.4766 149.987L11.0919 145.973L27.0018 38.09L28.3496 29.0656L34.444 35.9511L54.368 58.3656L47.9513 58.1019C62.504 42.7422 80.1231 30.6134 99.6658 22.5024C109.47 18.5141 119.707 15.6822 130.167 14.064C140.611 12.6012 151.185 12.3063 161.694 13.185C172.139 14.0631 182.451 16.1273 192.43 19.338C202.358 22.4512 211.948 26.5542 221.056 31.5854C230.048 36.7215 238.595 42.6021 246.605 49.1654L252.465 54.1757L258.091 59.479C259.995 61.2077 261.665 63.1708 263.453 65.0167L266.119 67.9467C266.412 68.2161 266.625 68.5607 266.734 68.9429C266.796 69.27 266.758 69.6078 266.626 69.9133C266.494 70.2187 266.274 70.4777 265.994 70.6572C265.713 70.8366 265.386 70.9283 265.053 70.9204C264.721 70.9126 264.398 70.8055 264.127 70.613L264.156 70.32ZM264.654 69.6168C264.741 69.6709 264.838 69.7069 264.938 69.7228C265.039 69.7387 265.142 69.7341 265.242 69.7094C265.341 69.6846 265.434 69.6401 265.515 69.5786C265.597 69.5171 265.665 69.4399 265.717 69.3514C265.768 69.2629 265.8 69.1651 265.813 69.0637C265.826 68.9622 265.818 68.8594 265.789 68.7611C265.761 68.6629 265.714 68.5713 265.65 68.4917C265.586 68.4122 265.506 68.3465 265.416 68.2983L262.72 65.5441C260.904 63.7568 259.234 61.8523 257.27 60.1822L251.586 55.084L245.726 50.3081C237.614 44.1435 228.92 38.7855 219.766 34.3103C201.55 25.4849 181.689 20.5647 161.459 19.8654C141.433 19.1734 121.496 22.8528 103.035 30.6478C84.6877 38.5789 68.0961 50.0716 54.2215 64.46L50.8813 67.8002L47.6583 64.167L28.0273 41.4595L35.4695 39.3206L17.6258 146.998L14.227 143.189L122.022 139.761L120.234 143.951L100.105 120.687L98.9333 119.339L99.9002 117.903C109.024 104.412 119.857 92.1605 132.13 81.454C144.234 70.5838 158.107 61.8635 173.15 55.67C180.675 52.6646 188.552 50.6267 196.59 49.6049L202.655 49.1068H208.72C212.757 49.2959 216.773 49.7954 220.733 50.6011C236.625 53.6663 251.654 60.1662 264.771 69.6461L264.654 69.6168Z" fill="#5352ED"/>
<path d="M36.8453 222.68C49.806 232.166 64.7552 238.579 80.5609 241.432C84.5019 242.114 88.4877 242.505 92.486 242.604H98.346L104.206 241.959C112.079 240.799 119.764 238.602 127.06 235.425C141.559 228.866 154.874 219.956 166.469 209.055C178.236 198.216 188.618 185.964 197.38 172.577L197.556 175.507L176.87 152.36L173.354 148.405L178.657 148.17L286.393 143.16L290.408 142.984L289.792 146.998L274 254.91L272.652 263.934L266.557 257.049L246.633 234.634H253.197C238.601 250.011 220.931 262.141 201.336 270.234C191.542 274.312 181.306 277.233 170.834 278.936C160.391 280.399 149.816 280.694 139.307 279.815C128.862 278.937 118.55 276.873 108.572 273.662C98.6435 270.549 89.0532 266.446 79.9456 261.415C70.953 256.279 62.4066 250.398 54.396 243.835L48.536 238.824L42.9104 233.521C41.0059 231.792 39.3358 229.829 37.5485 227.983L34.8822 225.053C34.5896 224.784 34.3768 224.439 34.2669 224.057C34.2056 223.73 34.2433 223.392 34.3753 223.087C34.5073 222.781 34.7275 222.522 35.0077 222.343C35.2878 222.163 35.6153 222.072 35.9479 222.08C36.2805 222.087 36.6032 222.195 36.8746 222.387L36.8453 222.68ZM36.3472 223.383C36.2605 223.329 36.1638 223.293 36.0629 223.277C35.9619 223.261 35.8588 223.266 35.7597 223.291C35.6606 223.315 35.5674 223.36 35.4858 223.421C35.4042 223.483 35.3358 223.56 35.2847 223.649C35.2336 223.737 35.2008 223.835 35.1883 223.936C35.1758 224.038 35.1838 224.141 35.2118 224.239C35.2399 224.337 35.2874 224.429 35.3516 224.508C35.4158 224.588 35.4953 224.654 35.5854 224.702L38.281 227.456C40.0976 229.243 41.7677 231.148 43.7308 232.818L49.415 237.916L55.4215 242.692C63.5336 248.857 72.2281 254.215 81.3813 258.69C99.598 267.515 119.458 272.435 139.688 273.135C159.666 273.805 179.551 270.126 197.966 262.352C216.301 254.465 232.892 243.022 246.78 228.687L250.12 225.2L253.343 228.833L272.974 251.54L265.532 253.679L283.376 146.002L286.774 149.811L178.98 153.239L180.767 149.049L200.896 172.313L202.068 173.661L201.101 175.097C191.977 188.588 181.144 200.839 168.871 211.546C156.768 222.416 142.894 231.137 127.851 237.33C120.326 240.335 112.45 242.373 104.411 243.395L98.346 243.893H92.2809C88.2442 243.704 84.228 243.205 80.2679 242.399C64.3767 239.334 49.347 232.834 36.23 223.354L36.3472 223.383Z" fill="#5352ED"/>
</g>
<path d="M264.355 69.894C251.473 60.4655 236.614 54.0918 220.904 51.2556C216.987 50.578 213.025 50.1887 209.051 50.0907H203.227L197.402 50.7314C189.577 51.8848 181.939 54.0686 174.687 57.2257C160.204 63.7731 146.908 72.6794 135.343 83.5815C123.717 94.3207 113.457 106.449 104.793 119.693L104.618 116.781L125.179 139.788L128.673 143.719L123.402 143.952L16.2027 148.903L12.2129 149.078L12.8245 145.088L28.6379 37.8593L29.9776 28.8896L36.035 35.7334L55.8383 58.012L49.4605 57.7499C63.925 42.4833 81.4374 30.428 100.862 22.3662C110.607 18.402 120.781 15.5873 131.178 13.9789C141.558 12.5249 152.068 12.2319 162.514 13.1052C172.896 13.978 183.145 16.0297 193.063 19.221C202.931 22.3152 212.463 26.3934 221.516 31.3941C230.454 36.4991 238.949 42.344 246.911 48.8676L252.735 53.8475L258.327 59.1187C260.219 60.8369 261.879 62.7881 263.656 64.6228L266.306 67.5351C266.597 67.8028 266.808 68.1453 266.918 68.5252C266.979 68.8503 266.941 69.1861 266.81 69.4897C266.679 69.7933 266.46 70.0507 266.181 70.2291C265.903 70.4075 265.577 70.4986 265.247 70.4907C264.916 70.4829 264.595 70.3765 264.326 70.1852L264.355 69.894ZM264.85 69.195C264.936 69.2487 265.032 69.2846 265.133 69.3004C265.233 69.3162 265.335 69.3116 265.434 69.287C265.532 69.2624 265.625 69.2182 265.706 69.1571C265.787 69.096 265.855 69.0191 265.906 68.9312C265.957 68.8433 265.989 68.746 266.002 68.6452C266.014 68.5444 266.006 68.4422 265.978 68.3445C265.951 68.2468 265.903 68.1558 265.84 68.0768C265.776 67.9978 265.697 67.9324 265.607 67.8845L262.928 65.147C261.122 63.3706 259.462 61.4776 257.511 59.8176L251.861 54.7503L246.037 50.0034C237.974 43.8761 229.332 38.5505 220.234 34.1025C202.128 25.3305 182.388 20.4402 162.281 19.7452C142.375 19.0573 122.559 22.7144 104.211 30.4622C85.9743 38.3453 69.4832 49.7682 55.6927 64.0695L52.3727 67.3894L49.1692 63.7783L29.6572 41.2084L37.0543 39.0824L19.3188 146.107L15.9406 142.321L123.082 138.914L121.305 143.079L101.298 119.955L100.133 118.616L101.095 117.189C110.163 103.78 120.931 91.6021 133.129 80.9605C145.159 70.1562 158.949 61.4887 173.901 55.3328C181.38 52.3456 189.209 50.32 197.199 49.3044L203.227 48.8093H209.255C213.268 48.9972 217.259 49.4938 221.195 50.2946C236.99 53.3412 251.929 59.8017 264.966 69.2242L264.85 69.195Z" fill="#8B8AFF"/>
<path d="M37.4213 222.33C50.3034 231.759 65.162 238.133 80.872 240.969C84.7891 241.646 88.7507 242.036 92.7248 242.134H98.5493L104.374 241.493C112.199 240.34 119.837 238.156 127.089 234.999C141.5 228.479 154.735 219.623 166.259 208.788C177.955 198.015 188.275 185.837 196.983 172.531L197.158 175.443L176.597 152.437L173.103 148.505L178.374 148.272L285.457 143.292L289.447 143.117L288.835 147.107L273.138 254.365L271.799 263.335L265.741 256.491L245.938 234.212H252.461C237.954 249.496 220.391 261.552 200.915 269.596C191.18 273.65 181.006 276.553 170.598 278.245C160.218 279.699 149.708 279.993 139.262 279.119C128.88 278.246 118.631 276.195 108.713 273.003C98.8449 269.909 89.3128 265.831 80.2604 260.83C71.3223 255.725 62.8276 249.88 54.8656 243.357L49.0412 238.377L43.4496 233.106C41.5567 231.387 39.8967 229.436 38.1202 227.602L35.4701 224.689C35.1793 224.422 34.9677 224.079 34.8585 223.699C34.7976 223.374 34.8351 223.038 34.9663 222.735C35.0974 222.431 35.3163 222.174 35.5948 221.995C35.8733 221.817 36.1987 221.726 36.5293 221.734C36.8599 221.741 37.1807 221.848 37.4504 222.039L37.4213 222.33ZM36.9262 223.029C36.84 222.976 36.7439 222.94 36.6436 222.924C36.5433 222.908 36.4408 222.913 36.3423 222.937C36.2437 222.962 36.1512 223.006 36.0701 223.067C35.989 223.128 35.921 223.205 35.8702 223.293C35.8194 223.381 35.7868 223.478 35.7743 223.579C35.7619 223.68 35.7698 223.782 35.7977 223.88C35.8256 223.978 35.8728 224.069 35.9366 224.148C36.0004 224.227 36.0795 224.292 36.169 224.34L38.8483 227.077C40.6539 228.854 42.3139 230.747 44.2651 232.407L49.9148 237.474L55.8849 242.221C63.9478 248.348 72.5896 253.674 81.6874 258.122C99.7937 266.894 119.534 271.784 139.641 272.479C159.498 273.146 179.262 269.489 197.566 261.762C215.79 253.922 232.28 242.549 246.083 228.301L249.403 224.835L252.607 228.446L272.119 251.016L264.722 253.142L282.457 146.117L285.836 149.903L178.694 153.31L180.471 149.146L200.478 172.269L201.643 173.609L200.682 175.036C191.613 188.445 180.845 200.622 168.647 211.264C156.617 222.068 142.828 230.736 127.876 236.892C120.396 239.879 112.567 241.904 104.578 242.92L98.5493 243.415H92.5209C88.5086 243.227 84.5168 242.731 80.5807 241.93C64.7859 238.883 49.8472 232.423 36.8097 223L36.9262 223.029Z" fill="#8B8AFF"/>
<defs>
<filter id="filter0_f_886_412" x="-6" y="-10" width="313" height="313" filterUnits="userSpaceOnUse" color-interpolation-filters="sRGB">
<feFlood flood-opacity="0" result="BackgroundImageFix"/>
<feBlend mode="normal" in="SourceGraphic" in2="BackgroundImageFix" result="shape"/>
<feGaussianBlur stdDeviation="5" result="effect1_foregroundBlur_886_412"/>
</filter>
<filter id="filter1_d_886_412" x="4" y="0" width="293" height="297" filterUnits="userSpaceOnUse" color-interpolation-filters="sRGB">
<feFlood flood-opacity="0" result="BackgroundImageFix"/>
<feColorMatrix in="SourceAlpha" type="matrix" values="0 0 0 0 0 0 0 0 0 0 0 0 0 0 0 0 0 0 127 0" result="hardAlpha"/>
<feOffset dy="4"/>
<feComposite in2="hardAlpha" operator="out"/>
<feColorMatrix type="matrix" values="0 0 0 0 0.32549 0 0 0 0 0.321569 0 0 0 0 0.929412 0 0 0 1 0"/>
<feBlend mode="normal" in2="BackgroundImageFix" result="effect1_dropShadow_886_412"/>
<feBlend mode="normal" in="SourceGraphic" in2="effect1_dropShadow_886_412" result="shape"/>
</filter>
</defs>
</svg>
